<svg width="850" height="530" viewBox="0 0 850 530" fill="none" xmlns="http://www.w3.org/2000/svg">
<g clip-path="url(#clip0_2_61)">
<rect width="850" height="530" rx="50" fill="#B4B4B4"/>
<g filter="url(#filter0_bdi_2_61)">
<rect width="850" height="530" rx="50" fill="white" fill-opacity="0.32"/>
<rect width="850" height="530" rx="50" fill="url(#paint0_linear_2_61)" fill-opacity="0.03"/>
<rect x="0.5" y="0.5" width="849" height="529" rx="49.5" stroke="white" stroke-opacity="0.4"/>
</g>
<mask id="mask0_2_61" style="mask-type:alpha" maskUnits="userSpaceOnUse" x="1" y="0" width="849" height="530">
<rect x="1" y="1.52588e-05" width="849" height="530" rx="50" fill="white" fill-opacity="0.32"/>
<rect x="1" y="1.52588e-05" width="849" height="530" rx="50" fill="url(#paint1_linear_2_61)" fill-opacity="0.03"/>
<rect x="1.5" y="0.500015" width="848" height="529" rx="49.5" stroke="white" stroke-opacity="0.4"/>
</mask>
<g mask="url(#mask0_2_61)">
<g opacity="0.18">
<path d="M88.0657 318.631C88.8248 317.789 89.4891 316.736 90.7226 314.945C58.8397 314.945 28.0006 314.945 -2.74361 314.945C-3.12317 314.419 -3.40793 313.892 -3.78749 313.26C58.9345 243.64 121.657 174.02 184.189 104.61C154.488 104.61 124.313 104.61 94.1385 104.716C92.4305 104.716 90.4378 106.401 89.1093 107.875C59.2191 140.948 29.329 174.02 -0.466352 207.197C-1.69992 208.567 -3.02846 209.725 -4.35692 210.989C-4.35692 280.504 -4.35692 350.019 -4.35693 419.533C-3.12336 418.691 -1.60513 417.953 -0.561342 416.9C29.0442 384.144 58.555 351.388 88.0657 318.631Z" fill="white"/>
<path d="M570.674 -742.733C569.535 -741.469 568.397 -740.099 566.594 -737.888C598.382 -737.888 629.031 -737.888 661.199 -737.888C629.221 -702.393 598.192 -667.952 566.499 -632.773C598.002 -632.773 628.177 -632.773 658.352 -632.878C659.965 -632.878 661.768 -634.353 663.001 -635.617C692.797 -668.583 722.497 -701.55 752.198 -734.623C752.957 -735.465 753.716 -736.518 755.044 -738.309C723.256 -738.309 692.417 -738.309 661.578 -738.309C661.388 -738.73 661.104 -739.151 660.914 -739.573C662.337 -740.731 663.856 -741.679 664.994 -743.049C693.841 -775.067 722.687 -807.086 751.533 -839.105C752.767 -840.475 753.811 -841.949 754.949 -843.424C723.351 -843.424 691.658 -843.424 660.06 -843.424C659.016 -841.738 658.162 -839.843 656.929 -838.473C628.177 -806.454 599.426 -774.541 570.674 -742.733Z" fill="white"/>
<path d="M2182.37 732.455C2181.23 733.719 2180 734.878 2178.01 736.879C2178.01 701.384 2178.01 667.153 2178.01 633.555C2146.98 667.996 2115.85 702.543 2085.49 736.247C2116.42 770.583 2147.74 805.34 2179.43 840.519C2180.1 839.677 2181.14 838.097 2182.37 836.727C2211.31 804.603 2240.26 772.479 2269.2 740.355C2270.43 738.985 2271.76 737.827 2273.09 736.563C2273.09 701.806 2273.09 667.048 2273.09 632.291C2271.76 633.555 2270.43 634.713 2269.2 636.083C2240.26 668.207 2211.31 700.331 2182.37 732.455Z" fill="white"/>
<path d="M-3.40803 740.776C-3.40803 737.3 -2.45909 734.983 -0.276623 732.561C28.9494 700.226 58.1755 667.891 87.3067 635.45C88.5402 634.081 89.5841 632.712 90.9125 631.238C89.9636 630.079 89.2993 629.236 88.4453 628.394C58.3652 595.005 28.2853 561.617 -1.79471 528.229C-2.55383 527.386 -3.50291 526.755 -4.35692 526.017C-4.35693 631.027 -4.35693 735.931 -4.35693 840.94C-4.07226 839.15 -3.40804 837.465 -3.40804 835.674C-3.31314 803.971 -3.31314 772.374 -3.40803 740.776Z" fill="white"/>
<path d="M88.7299 -213.999C58.555 -247.492 28.3801 -280.986 -1.6998 -314.374C-2.45891 -315.217 -3.40776 -315.849 -4.26176 -316.586C-4.26177 -281.829 -4.26177 -247.071 -4.26177 -212.314C-3.9771 -210.418 -3.31287 -208.417 -3.31287 -206.521C-3.21799 -175.345 -3.31288 -144.063 -3.31288 -112.887C-3.31288 -111.096 -3.31288 -109.306 -3.31288 -108.252C27.9057 -142.904 59.0296 -177.451 90.2482 -212.103C90.0584 -212.524 89.3941 -213.262 88.7299 -213.999Z" fill="white"/>
<path d="M2178.2 416.9C2178.2 417.638 2178.48 418.375 2178.86 420.06C2180.57 417.848 2181.61 416.374 2182.85 415.004C2211.6 382.985 2240.44 351.072 2269.29 319.053C2270.52 317.684 2271.85 316.525 2273.09 315.261C2273.09 280.504 2273.09 245.747 2273.09 210.989C2271.76 212.253 2270.43 213.411 2269.2 214.781C2240.16 247.01 2211.12 279.135 2182.09 311.364C2180.95 312.628 2179.62 313.787 2178.39 314.945C2178.29 315.577 2178.1 316.314 2178.1 316.946C2178.2 350.229 2178.2 383.512 2178.2 416.9Z" fill="white"/>
<path d="M2178.39 -738.098L2178.48 -738.204C2178.48 -738.204 2178.48 -738.204 2178.39 -738.098Z" fill="white"/>
<path d="M2088.05 -742.732C2086.91 -741.469 2085.77 -740.099 2083.97 -737.993C2086.44 -737.993 2087.96 -737.993 2089.48 -737.993C2110.16 -737.993 2130.85 -737.993 2151.53 -737.993C2160.55 -737.993 2169.47 -738.203 2178.48 -738.309C2179.53 -739.678 2180.57 -741.153 2181.71 -742.416C2210.74 -774.646 2239.78 -806.876 2268.72 -839C2269.96 -840.369 2271 -841.844 2272.14 -843.318C2240.82 -843.318 2209.51 -843.318 2178.2 -843.318C2177.06 -841.844 2176.02 -840.369 2174.78 -839.105C2145.84 -806.981 2116.99 -774.857 2088.05 -742.732Z" fill="white"/>
<path d="M846.992 -741.574C847.846 -740.626 848.795 -739.783 849.839 -738.835C850.693 -739.783 851.452 -740.415 852.116 -741.153C882.006 -774.225 911.802 -807.402 941.597 -840.475C942.356 -841.317 942.926 -842.37 943.59 -843.318C880.963 -843.318 818.336 -843.318 755.708 -843.318C756.468 -842.265 757.227 -841.106 758.081 -840.159C787.781 -807.297 817.387 -774.435 846.992 -741.574Z" fill="white"/>
<path d="M468.763 -741.153C469.522 -740.31 470.376 -739.678 471.23 -738.836C472.084 -739.783 472.843 -740.415 473.507 -741.153C503.397 -774.225 533.193 -807.402 562.988 -840.475C563.747 -841.317 564.316 -842.37 564.981 -843.318C502.353 -843.318 439.726 -843.318 377.099 -843.318C377.764 -842.37 378.333 -841.317 379.092 -840.475C409.077 -807.402 438.872 -774.225 468.763 -741.153Z" fill="white"/>
<path d="M1986.05 -741.153C1986.81 -740.31 1987.66 -739.678 1988.51 -738.835C1989.37 -739.783 1990.13 -740.415 1990.79 -741.153C2020.68 -774.225 2050.48 -807.402 2080.37 -840.474C2081.13 -841.317 2081.69 -842.37 2082.36 -843.318C2019.73 -843.318 1957.1 -843.318 1894.48 -843.318C1895.14 -842.37 1895.71 -841.317 1896.47 -840.474C1926.36 -807.402 1956.16 -774.225 1986.05 -741.153Z" fill="white"/>
<path d="M1328.84 -742.627C1327.7 -741.363 1326.66 -739.994 1325.05 -737.993C1327.32 -737.993 1328.75 -737.993 1330.17 -737.993C1358.35 -737.993 1386.44 -738.098 1414.62 -737.888C1417.75 -737.888 1419.84 -739.046 1421.93 -741.469C1451.25 -774.12 1480.66 -806.77 1510.08 -839.421C1511.22 -840.685 1512.07 -842.054 1513.12 -843.318C1481.8 -843.318 1450.49 -843.318 1419.18 -843.318C1418.04 -841.844 1416.99 -840.369 1415.76 -839C1386.72 -806.876 1357.78 -774.751 1328.84 -742.627Z" fill="white"/>
<path d="M87.5913 -102.143C88.5402 -103.197 89.2994 -104.355 90.7227 -106.041C58.5552 -106.041 27.1467 -106.041 -4.26178 -106.041C-4.26178 -71.2831 -4.26178 -36.5257 -4.26178 -1.76831C-2.83844 -2.82159 -1.32016 -3.5589 -0.181485 -4.82281C29.1394 -37.2631 58.3654 -69.7032 87.5913 -102.143Z" fill="white"/>
<path d="M87.5914 -418.12C88.5403 -419.173 89.2994 -420.331 90.7227 -422.017C58.5552 -422.017 27.1467 -422.017 -4.26176 -422.017C-4.26177 -387.259 -4.26177 -352.502 -4.26177 -317.745C-2.83843 -318.798 -1.32015 -319.535 -0.181473 -320.799C29.1394 -353.239 58.3654 -385.679 87.5914 -418.12Z" fill="white"/>
<path d="M87.5913 3.18195C88.5402 2.12866 89.2994 0.970093 90.7227 -0.715088C58.5552 -0.715088 27.1467 -0.715088 -4.26178 -0.715088C-4.26178 34.0423 -4.26178 68.7997 -4.26179 103.557C-2.83844 102.504 -1.32016 101.767 -0.181489 100.503C29.1394 68.0625 58.3654 35.6222 87.5913 3.18195Z" fill="white"/>
<path d="M2270.52 101.345C2271.28 102.188 2272.23 102.82 2273.09 103.557C2273.09 68.7998 2273.09 34.0424 2273.09 -0.715027C2241.96 -0.715027 2210.84 -0.715027 2178.86 -0.715027C2180.28 0.970154 2180.85 1.70746 2181.52 2.44476C2211.22 35.4116 2240.82 68.3786 2270.52 101.345Z" fill="white"/>
<path d="M1042.37 -741.679C1072.07 -774.646 1101.77 -807.613 1131.47 -840.58C1132.23 -841.422 1132.8 -842.476 1133.46 -843.424C1102.15 -843.424 1070.84 -843.424 1039.52 -843.424C1039.52 -808.877 1039.52 -774.33 1039.52 -738.836C1041.04 -740.205 1041.71 -740.942 1042.37 -741.679Z" fill="white"/>
<path d="M1516.82 -741.679C1546.52 -774.646 1576.22 -807.508 1605.92 -840.475C1606.68 -841.317 1607.25 -842.37 1607.91 -843.318C1576.6 -843.318 1545.28 -843.318 1513.97 -843.318C1513.97 -808.772 1513.97 -774.225 1513.97 -738.73C1515.49 -740.205 1516.15 -740.942 1516.82 -741.679Z" fill="white"/>
<path d="M1611.71 -741.679C1641.41 -774.646 1671.11 -807.508 1700.81 -840.475C1701.57 -841.317 1702.14 -842.37 1702.8 -843.318C1671.49 -843.318 1640.17 -843.318 1608.86 -843.318C1608.86 -808.772 1608.86 -774.225 1608.86 -738.73C1610.38 -740.205 1611.04 -740.942 1611.71 -741.679Z" fill="white"/>
<path d="M284.202 -741.679C313.903 -774.646 343.603 -807.613 373.304 -840.58C374.063 -841.423 374.632 -842.476 375.296 -843.424C343.983 -843.424 312.669 -843.424 281.356 -843.424C281.356 -808.877 281.356 -774.33 281.356 -738.836C282.874 -740.205 283.538 -740.942 284.202 -741.679Z" fill="white"/>
<path d="M94.4234 -741.679C124.124 -774.646 153.824 -807.613 183.524 -840.58C184.284 -841.422 184.853 -842.476 185.517 -843.424C154.204 -843.424 122.89 -843.424 91.5767 -843.424C91.5767 -808.877 91.5767 -774.33 91.5767 -738.836C93.095 -740.205 93.7592 -740.942 94.4234 -741.679Z" fill="white"/>
<path d="M1232.15 -741.679C1261.85 -774.646 1291.55 -807.613 1321.25 -840.58C1322.01 -841.422 1322.58 -842.476 1323.24 -843.424C1291.93 -843.424 1260.62 -843.424 1229.3 -843.424C1229.3 -808.877 1229.3 -774.33 1229.3 -738.835C1230.82 -740.205 1231.48 -740.942 1232.15 -741.679Z" fill="white"/>
<path d="M88.6351 -840.475C89.3942 -841.317 89.9636 -842.37 90.6279 -843.318C59.3143 -843.318 28.0007 -843.318 -3.31286 -843.318C-3.31287 -808.772 -3.31287 -774.225 -3.31287 -738.73C-1.79463 -740.31 -1.13041 -740.942 -0.46618 -741.679C29.2343 -774.646 58.9346 -807.508 88.6351 -840.475Z" fill="white"/>
<path d="M2270.52 -319.956C2271.28 -319.114 2272.23 -318.482 2273.09 -317.744C2273.09 -352.502 2273.09 -387.259 2273.09 -422.017C2241.96 -422.017 2210.84 -422.017 2178.86 -422.017C2180.28 -420.331 2180.85 -419.594 2181.52 -418.857C2211.22 -385.89 2240.82 -352.923 2270.52 -319.956Z" fill="white"/>
<path d="M1801.49 -741.679C1831.19 -774.646 1860.89 -807.508 1890.59 -840.474C1891.35 -841.317 1891.92 -842.37 1892.58 -843.318C1861.27 -843.318 1829.95 -843.318 1798.64 -843.318C1798.64 -808.772 1798.64 -774.225 1798.64 -738.73C1800.16 -740.205 1800.82 -740.942 1801.49 -741.679Z" fill="white"/>
<path d="M1136.97 -742.311C1166.58 -775.173 1196.19 -808.034 1225.7 -840.896C1226.36 -841.633 1226.84 -842.476 1227.4 -843.318C1196.38 -843.318 1165.44 -843.318 1134.41 -843.318C1134.41 -809.088 1134.41 -774.857 1134.41 -739.783C1135.84 -741.153 1136.41 -741.785 1136.97 -742.311Z" fill="white"/>
<path d="M1513.88 741.724C1513.88 737.827 1514.73 734.983 1517.39 732.139C1546.52 700.015 1575.55 667.68 1604.69 635.45C1605.92 634.081 1606.96 632.712 1608.01 631.553C1544.9 561.512 1482.09 491.787 1419.56 422.377C1388.53 456.819 1357.4 491.365 1326.28 525.912C1327.51 525.912 1329.22 525.912 1330.93 525.912C1359.11 525.912 1387.2 525.912 1415.38 525.807C1418.23 525.807 1420.31 526.544 1422.4 528.861C1451.91 561.828 1481.61 594.69 1511.22 627.551C1512.17 628.604 1513.12 629.763 1514.45 631.448C1482.85 666.521 1451.34 701.489 1420.5 735.72C1451.82 770.477 1482.94 805.024 1513.97 839.36C1513.97 838.097 1513.97 836.201 1513.97 834.305C1513.97 803.55 1514.07 772.584 1513.88 741.724Z" fill="white"/>
<path d="M1697.96 104.61C1669.78 104.61 1641.69 104.716 1613.51 104.505C1610.38 104.505 1608.29 105.558 1606.11 107.981C1545.09 175.81 1484.08 243.535 1423.07 311.259C1421.93 312.523 1420.98 313.787 1420.22 314.629C1451.63 349.492 1482.94 384.25 1513.59 418.27C1544.53 383.934 1575.55 349.492 1606.68 314.945C1576.31 314.945 1545.47 314.945 1514.63 314.945C1514.45 314.524 1514.16 314.103 1513.97 313.681C1576.69 244.061 1639.41 174.441 1702.42 104.505C1700.71 104.61 1699.29 104.61 1697.96 104.61Z" fill="white"/>
<path d="M661.388 420.06C692.322 385.619 723.256 351.283 754.949 315.999C754.949 351.072 754.949 384.987 754.949 417.743C785.599 383.723 816.628 349.281 847.372 315.156C817.387 315.156 786.832 315.156 755.709 315.156C755.709 312.733 755.709 310.627 755.709 308.626C755.614 276.08 755.614 243.535 755.519 210.989C754.095 212.148 752.482 213.201 751.249 214.57C722.497 246.378 693.841 278.292 665.089 310.1C663.95 311.364 662.717 312.523 660.819 314.524C660.819 279.556 660.819 245.641 660.819 210.778C659.016 212.674 657.783 213.938 656.549 215.307C627.608 247.432 598.666 279.556 569.725 311.68C568.586 312.944 567.258 314.208 566.024 315.367C566.024 349.913 566.024 384.46 566.024 419.007C566.689 419.428 567.258 419.744 567.922 420.165C598.667 386.04 629.411 351.914 660.345 317.578C660.345 351.388 660.345 385.513 660.345 419.533C660.629 419.639 661.009 419.849 661.388 420.06Z" fill="white"/>
<path d="M754.76 -211.471C754.76 -211.366 754.665 -211.366 754.665 -211.261C754.76 -211.261 754.854 -211.261 754.949 -211.261C754.949 -211.261 754.949 -211.261 754.949 -211.366C754.854 -211.366 754.854 -211.471 754.76 -211.471Z" fill="white"/>
<path d="M661.578 -1.03094C692.512 -35.4724 723.446 -69.8085 755.044 -104.987C755.044 -70.1245 755.044 -36.2097 755.044 -3.87482C785.504 -37.6843 816.533 -72.1256 847.372 -106.356C785.883 -106.356 723.731 -106.356 661.578 -106.356C661.388 -106.778 661.198 -107.094 661.009 -107.515C662.337 -108.674 663.855 -109.727 665.089 -111.096C693.935 -143.115 722.782 -175.134 751.628 -207.153C752.767 -208.417 753.716 -209.891 754.76 -211.26C723.161 -211.26 691.658 -211.26 660.06 -211.26C659.111 -209.681 658.257 -207.785 657.023 -206.416C627.797 -173.87 598.476 -141.324 569.156 -108.884C566.973 -106.462 566.119 -104.039 566.119 -100.669C566.214 -69.5979 566.214 -38.5269 566.214 -7.45587C566.214 -5.77069 566.214 -4.08539 566.214 -2.40021C566.594 -2.08423 567.068 -1.76831 567.448 -1.45233C598.287 -35.6831 629.031 -69.8085 660.534 -104.776C660.534 -69.8085 660.534 -35.7884 660.534 -1.76831C660.724 -1.66296 661.198 -1.34692 661.578 -1.03094Z" fill="white"/>
<path d="M564.032 -211.261C533.288 -245.386 502.164 -279.933 471.04 -314.479C471.04 -280.67 471.04 -246.439 471.04 -211.261C469.142 -213.262 467.909 -214.526 466.77 -215.789C437.449 -248.335 408.128 -280.775 378.997 -313.321C376.815 -315.743 374.727 -316.797 371.596 -316.797C343.413 -316.691 315.326 -316.691 287.144 -316.691C285.816 -316.691 284.392 -316.691 283.633 -316.691C346.355 -247.071 409.172 -177.346 471.324 -108.358C502.164 -142.588 533.382 -177.24 564.032 -211.261Z" fill="white"/>
<path d="M1798.64 839.782C1798.64 806.604 1798.73 773.216 1798.54 739.828C1798.54 737.827 1797.03 735.404 1795.6 733.824C1766.19 700.963 1736.58 668.207 1707.07 635.451C1706.03 634.292 1704.79 633.133 1703.18 631.448C1701.85 633.239 1700.9 634.924 1699.67 636.293C1670.82 668.312 1641.98 700.331 1613.23 732.455C1610.57 735.404 1608.01 736.774 1604.21 736.668C1576.22 736.458 1548.23 736.563 1520.23 736.563C1518.62 736.563 1517.01 736.563 1515.49 736.563C1546.99 771.531 1578.02 805.973 1609.9 841.362C1641.31 806.499 1672.72 771.636 1704.98 735.72C1736.11 770.372 1767.33 805.025 1798.64 839.782Z" fill="white"/>
<path d="M948.809 -627.507C947.67 -628.77 946.436 -629.929 944.634 -631.825C944.634 -629.086 944.634 -627.401 944.634 -625.716C944.634 -594.856 944.728 -563.89 944.539 -533.03C944.539 -529.449 945.393 -526.921 947.67 -524.288C1008.68 -456.669 1069.6 -389.05 1130.52 -321.431C1131.76 -320.062 1132.99 -318.903 1133.46 -318.376C1164.87 -353.239 1195.9 -387.681 1226.93 -422.122C1225.79 -422.122 1224.08 -422.122 1222.38 -422.122C1194.19 -422.122 1166.11 -422.017 1137.92 -422.227C1135.65 -422.227 1132.7 -423.597 1131.09 -425.387C1101.3 -458.143 1071.69 -491.11 1042.09 -523.972C1041.14 -525.025 1040.28 -526.289 1039.33 -527.447C1038.1 -528.711 1036.77 -529.87 1035.54 -531.239C1006.79 -563.258 977.75 -595.382 948.809 -627.507Z" fill="white"/>
<path d="M851.831 1.07544C882.196 34.8849 912.656 68.5891 943.115 102.293C944.444 103.768 946.911 104.505 948.904 104.505C977.181 104.61 1005.55 104.61 1033.83 104.61C1035.16 104.61 1036.58 104.61 1038.38 104.61C1006.69 69.4316 975.473 34.7796 943.495 -0.609741C975.662 -36.3151 1007.07 -71.0724 1038.1 -105.514C1006.98 -140.061 975.852 -174.607 944.539 -209.365C944.539 -207.68 944.539 -205.889 944.539 -203.993C944.539 -172.711 944.539 -141.535 944.633 -110.254C944.633 -106.883 943.779 -104.461 941.597 -102.038C912.371 -69.7032 883.145 -37.263 854.014 -4.9281C852.78 -3.5589 851.642 -2.18958 850.408 -0.715027C851.072 0.0222778 851.357 0.548828 851.831 1.07544Z" fill="white"/>
<path d="M1230.44 -1.34692C1261.75 33.4105 1292.88 67.9573 1324.19 102.715C1324.19 101.029 1324.19 99.2389 1324.19 97.343C1324.19 66.272 1324.29 35.2009 1324.1 4.12994C1324.1 0.338257 1325.05 -2.29486 1327.42 -5.03333C1388.05 -72.0203 1448.5 -139.218 1508.94 -206.31C1510.17 -207.679 1511.31 -209.154 1513.02 -211.155C1513.78 -208.943 1514.16 -206.626 1514.07 -203.782C1513.78 -171.869 1513.97 -139.955 1513.97 -108.042C1545.28 -142.799 1576.41 -177.346 1607.63 -211.998C1607.63 -211.998 1607.44 -212.419 1607.15 -212.84C1576.5 -246.861 1545.95 -280.881 1515.2 -314.795C1514.07 -316.059 1511.88 -316.691 1510.27 -316.691C1481.52 -316.797 1452.77 -316.797 1423.92 -316.797C1422.78 -316.797 1421.64 -316.586 1419.37 -316.27C1421.55 -314.163 1422.97 -313.005 1424.21 -311.636C1452.48 -280.249 1480.76 -248.756 1509.13 -217.58C1510.93 -215.579 1512.17 -213.683 1513.02 -211.471C1510.93 -211.471 1509.61 -211.471 1508.28 -211.471C1480.1 -211.471 1452.01 -211.366 1423.83 -211.576C1420.69 -211.576 1418.61 -210.523 1416.42 -208.101C1355.41 -140.271 1294.4 -72.5469 1233.38 -4.82263C1232.24 -3.45343 1231.2 -2.18951 1230.44 -1.34692Z" fill="white"/>
<path d="M758.65 -207.679C787.781 -175.45 816.817 -143.115 845.854 -110.885C847.087 -109.516 848.321 -108.252 849.744 -106.778C851.167 -108.252 852.401 -109.622 853.634 -110.885C882.576 -143.01 911.612 -175.134 940.458 -207.363C942.925 -210.207 945.393 -211.471 949.093 -211.471C977.086 -211.26 1005.08 -211.366 1033.07 -211.366C1034.68 -211.366 1036.39 -211.366 1037.63 -211.366C1006.41 -246.018 975.283 -280.565 943.4 -315.954C912.276 -281.407 880.868 -246.544 848.985 -211.155C847.846 -212.63 846.897 -214.21 845.664 -215.474C816.722 -247.598 787.781 -279.827 758.745 -311.952C757.606 -313.215 756.183 -314.374 754.949 -315.533C754.949 -280.775 754.949 -246.123 754.949 -211.366C756.183 -210.102 757.416 -208.943 758.65 -207.679Z" fill="white"/>
<path d="M1895.9 -313.426C1894.29 -315.217 1891.35 -316.586 1889.07 -316.586C1860.79 -316.797 1832.52 -316.691 1804.14 -316.691C1802.81 -316.691 1801.49 -316.586 1800.73 -316.481C1863.45 -246.86 1926.17 -177.24 1988.61 -107.936C2019.54 -142.272 2050.76 -176.924 2081.13 -210.628C2050.29 -244.859 2019.07 -279.511 1988.13 -313.847C1988.13 -280.459 1988.13 -246.228 1988.13 -210.312C1986.14 -212.946 1985.1 -214.526 1983.86 -215.895C1954.54 -248.44 1925.22 -280.986 1895.9 -313.426Z" fill="white"/>
<path d="M851.642 736.563C852.97 736.563 854.678 736.563 856.386 736.563C884.568 736.563 912.656 736.563 940.838 736.458C943.969 736.458 946.057 737.511 948.239 739.933C977.655 772.795 1007.26 805.446 1036.58 838.307C1038.19 840.098 1039.33 843.363 1039.43 845.891C1039.62 877.278 1039.52 908.665 1039.52 940.157C1039.52 941.947 1039.52 943.738 1039.52 945.844C1071.12 910.771 1102.15 876.33 1132.99 842.204C1069.98 772.268 1007.17 702.543 944.728 633.239C913.984 667.469 882.86 702.016 851.642 736.563Z" fill="white"/>
<path d="M281.356 839.782C281.356 806.499 281.45 773.216 281.261 739.828C281.261 737.827 279.742 735.404 278.414 733.824C248.998 700.963 219.393 668.207 189.882 635.45C188.838 634.292 187.605 633.133 185.897 631.448C184.568 633.238 183.619 634.924 182.386 636.293C153.919 667.996 125.357 699.594 96.8903 731.297C93.5692 735.088 90.3429 736.773 85.4086 736.668C57.8906 736.352 30.3726 736.563 2.85462 736.563C1.24149 736.563 -0.371723 736.563 -1.98485 736.563C29.5185 771.531 60.5474 805.972 92.4303 841.362C123.839 806.499 155.247 771.636 187.51 735.72C218.823 770.372 250.042 805.024 281.356 839.782Z" fill="white"/>
<path d="M567.922 736.247C598.951 770.688 630.264 805.446 662.052 840.73C662.717 839.782 663.76 838.202 664.994 836.833C693.935 804.708 722.877 772.584 751.818 740.46C752.957 739.196 754.285 737.932 755.519 736.774C755.519 702.016 755.614 667.153 755.614 632.396C754.19 633.554 752.482 634.503 751.249 635.872C722.497 667.68 693.746 699.594 664.994 731.507C663.855 732.771 662.622 733.93 660.629 735.931C660.629 700.963 660.629 667.048 660.629 633.344C629.6 667.891 598.476 702.438 567.922 736.247Z" fill="white"/>
<path d="M941.692 420.481C943.495 420.481 945.677 418.796 947.101 417.322C976.706 384.671 1006.22 351.914 1035.73 319.158C1036.77 318 1037.82 316.63 1038.38 315.999C1006.88 281.031 975.568 246.273 944.728 212.042C913.889 246.273 882.861 280.714 851.642 315.367C882.291 315.367 913.13 315.367 944.918 315.367C913.13 350.651 882.006 385.092 850.029 420.692C881.627 420.586 911.612 420.692 941.692 420.481Z" fill="white"/>
<path d="M565.265 -529.027C534.141 -563.469 503.113 -598.015 471.609 -632.878C502.733 -632.878 533.572 -632.878 563.937 -632.878C532.813 -667.425 501.689 -701.972 471.42 -735.676C440.486 -701.234 409.077 -666.477 377.479 -631.404C378.238 -630.666 379.661 -629.508 380.895 -628.139C409.836 -596.014 438.778 -563.89 467.719 -531.766C468.858 -530.502 469.901 -529.027 471.04 -527.658C502.164 -527.658 533.382 -527.658 564.506 -527.658C564.791 -527.974 565.076 -528.501 565.265 -529.027Z" fill="white"/>
<path d="M1988.7 -735.57C1957.77 -701.234 1926.36 -666.372 1894.86 -631.404C1895.62 -630.666 1896.94 -629.402 1898.18 -628.033C1927.12 -595.909 1956.06 -563.785 1985 -531.66C1986.14 -530.396 1987.18 -528.922 1988.32 -527.553C2019.45 -527.553 2050.67 -527.553 2081.79 -527.553C2082.07 -528.079 2082.26 -528.606 2082.55 -529.027C2051.43 -563.574 2020.4 -598.015 1988.99 -632.878C2020.11 -632.878 2050.95 -632.878 2081.32 -632.878C2050.19 -667.425 2019.07 -701.972 1988.7 -735.57Z" fill="white"/>
<path d="M2177.53 -423.807C2208.94 -458.67 2240.26 -493.427 2271.09 -527.658C2240.35 -561.783 2209.04 -596.541 2178.48 -630.456C2147.45 -596.014 2116.14 -561.257 2084.92 -526.605C2115.67 -492.479 2146.79 -457.933 2177.53 -423.807Z" fill="white"/>
<path d="M1803.1 426.064C1801.87 424.694 1800.54 423.325 1798.83 421.429C1798.73 423.22 1798.64 423.852 1798.64 424.484C1798.64 456.924 1798.54 489.364 1798.73 521.91C1798.73 524.121 1800.06 526.86 1801.58 528.545C1862.5 596.375 1923.61 664.099 1984.62 731.823C1985.67 732.982 1986.81 734.035 1988.23 735.404C1988.23 700.12 1988.23 665.573 1988.23 631.027C1986.99 629.763 1985.67 628.604 1984.53 627.34C1924.08 560.248 1863.54 493.156 1803.1 426.064Z" fill="white"/>
<path d="M186.656 418.059C217.59 383.723 248.809 349.176 279.458 315.051C248.619 280.82 217.305 246.062 185.897 211.2C185.612 211.411 185.043 211.937 184.473 212.569C154.204 246.168 123.839 279.767 93.6641 313.471C92.3356 314.945 91.5766 317.684 91.5766 319.896C91.4817 351.493 91.4816 383.091 91.4816 414.688C91.4816 416.163 91.6714 417.637 91.7663 419.007C92.2407 419.323 92.7152 419.639 93.1896 419.955C124.313 385.408 155.342 350.967 186.656 316.209C186.656 350.44 186.656 384.671 186.656 418.059Z" fill="white"/>
<path d="M1796.65 315.577C1765.62 281.136 1734.3 246.378 1702.9 211.516C1702.9 211.516 1702.42 211.937 1701.95 212.464C1671.68 246.062 1641.31 279.661 1611.14 313.365C1609.81 314.84 1608.96 317.578 1608.96 319.685C1608.86 351.282 1608.86 382.88 1608.86 414.478C1608.86 415.952 1608.86 417.427 1608.86 418.901C1609.24 419.112 1609.71 419.323 1610.09 419.533C1641.12 384.987 1672.25 350.545 1703.65 315.682C1703.65 350.335 1703.65 384.46 1703.65 418.901C1735.06 383.933 1766.19 349.387 1796.65 315.577Z" fill="white"/>
<path d="M285.815 426.063C284.582 424.694 283.253 423.325 281.545 421.429C281.451 423.22 281.356 423.852 281.356 424.484C281.356 456.924 281.261 489.364 281.451 521.91C281.451 524.121 282.779 526.86 284.297 528.44C345.216 596.269 406.325 663.994 467.339 731.718C468.383 732.876 469.522 733.93 470.945 735.299C470.945 700.015 470.945 665.468 470.945 630.922C469.711 629.658 468.383 628.499 467.244 627.235C406.8 560.248 346.26 493.156 285.815 426.063Z" fill="white"/>
<path d="M565.17 841.678C564.696 841.046 564.221 840.414 563.652 839.782C533.382 806.183 503.112 772.479 472.748 738.985C471.419 737.511 468.952 736.668 466.96 736.668C438.493 736.563 410.026 736.563 381.559 736.563C380.23 736.563 378.997 736.773 377.668 736.879C377.384 737.405 377.004 737.932 376.72 738.564C407.843 773.111 438.872 807.552 470.091 842.204C439.442 842.204 408.602 842.204 378.617 842.204C409.551 876.54 440.675 911.087 471.609 945.423C502.353 911.298 533.572 876.646 565.17 841.678Z" fill="white"/>
<path d="M1422.12 -628.77C1421.17 -629.824 1420.03 -630.772 1419.65 -631.193C1388.15 -596.225 1356.83 -561.467 1325.8 -527.026C1356.55 -492.901 1387.58 -458.459 1419.18 -423.386C1419.18 -457.933 1419.18 -492.163 1419.18 -527.763C1451.06 -492.374 1482.09 -457.827 1513.78 -422.649C1513.88 -424.439 1513.97 -425.282 1513.97 -426.124C1513.97 -458.565 1514.07 -491.005 1513.88 -523.55C1513.88 -525.657 1512.64 -528.185 1511.22 -529.659C1481.61 -562.837 1451.82 -595.804 1422.12 -628.77Z" fill="white"/>
<path d="M660.629 -424.334C691.658 -458.775 722.972 -493.533 754.19 -528.185C723.446 -562.31 692.322 -596.857 661.578 -630.982C630.075 -596.014 598.761 -561.257 568.017 -527.131C598.856 -492.901 630.17 -458.249 660.629 -424.334Z" fill="white"/>
<path d="M1989.94 738.88C1988.7 737.511 1986.43 736.668 1984.62 736.668C1955.87 736.563 1927.12 736.563 1898.27 736.563C1897.13 736.563 1896.09 736.774 1894.95 736.984C1894.57 737.616 1894.19 738.248 1893.91 738.775C1924.94 773.216 1956.06 807.763 1987.09 842.204C1956.63 842.204 1925.79 842.204 1896.09 842.204C1926.93 876.435 1958.05 910.982 1989.08 945.423C2019.83 911.298 2050.95 876.751 2082.45 841.783C2081.98 841.151 2081.6 840.519 2081.13 840.098C2050.76 806.288 2020.4 772.479 1989.94 738.88Z" fill="white"/>
<path d="M751.154 530.546C752.292 529.282 753.621 528.019 754.854 526.86C753.905 525.385 753.146 523.595 752.008 522.331C722.782 489.786 693.461 457.345 664.235 424.8C663.191 423.641 661.958 422.483 661.768 422.272C630.359 457.135 599.235 494.681 568.112 529.123C598.381 529.123 629.031 529.123 659.87 529.123C659.87 562.3 659.87 591.951 659.87 624.602C659.87 626.603 660.155 628.709 660.344 630.711C661.768 629.341 663.191 627.973 664.52 626.498C693.461 594.584 722.307 562.565 751.154 530.546Z" fill="white"/>
<path d="M660.439 -0.293701C659.301 1.18085 658.257 2.6554 657.023 4.0246C628.177 36.0435 599.33 68.0625 570.484 100.081C569.345 101.345 568.302 102.609 566.214 105.032C598.382 105.032 629.126 105.032 659.775 105.032C659.965 105.453 660.25 105.874 660.439 106.296C629.411 140.632 598.382 174.968 567.068 209.62C568.207 209.725 568.871 209.83 569.44 209.83C598.856 209.83 628.272 209.936 657.688 209.725C659.585 209.725 661.768 208.251 663.191 206.671C692.797 174.02 722.308 141.264 751.818 108.507C752.767 107.454 753.621 106.401 755.424 104.294C723.161 104.294 692.227 104.294 661.009 104.294C661.009 101.767 661.009 99.8708 661.009 97.9749C661.009 67.2199 661.009 36.5701 661.009 5.81512C660.914 3.81396 660.629 1.81281 660.439 -0.293701Z" fill="white"/>
<path d="M471.135 -527.342L471.04 -527.447C471.04 -527.447 471.04 -527.342 471.135 -527.342Z" fill="white"/>
<path d="M561.754 -321.957C562.893 -320.694 564.126 -319.43 566.024 -317.534C566.024 -320.167 566.024 -321.642 566.024 -323.221C566.024 -354.398 565.929 -385.679 566.119 -416.856C566.119 -420.331 565.17 -422.649 562.988 -425.071C533.382 -457.722 503.966 -490.478 474.456 -523.234C473.317 -524.498 472.179 -525.973 471.135 -527.342C440.011 -527.342 408.887 -527.342 377.763 -527.342C378.712 -524.814 380.136 -523.656 381.369 -522.287C410.216 -490.268 439.062 -458.249 467.814 -426.335C469.047 -424.966 470.091 -423.597 471.23 -422.122C472.463 -420.858 473.792 -419.7 475.025 -418.33C503.872 -386.206 532.813 -354.082 561.754 -321.957Z" fill="white"/>
<path d="M2176.01 -208.206C2146.03 -175.028 2116.04 -141.851 2086.15 -108.463C2084.64 -106.778 2083.4 -103.723 2083.4 -101.301C2083.21 -69.7031 2083.31 -38.1053 2083.31 -6.61304C2083.31 -5.13849 2083.5 -3.76923 2083.69 -0.820129C2085.68 -3.34796 2086.63 -4.92798 2087.86 -6.29718C2116.71 -38.3161 2145.56 -70.335 2174.4 -102.354C2175.64 -103.723 2176.87 -104.882 2178.2 -106.146C2179.34 -107.515 2180.38 -108.989 2181.61 -110.359C2210.46 -142.378 2239.4 -174.502 2268.34 -206.626C2269.48 -207.89 2270.62 -209.259 2272.14 -211.05C2270.81 -211.155 2270.24 -211.26 2269.67 -211.26C2240.26 -211.26 2210.84 -211.366 2181.52 -211.155C2179.62 -211.26 2177.34 -209.786 2176.01 -208.206Z" fill="white"/>
<path d="M2178.29 -106.146C2178.2 -106.04 2178.2 -106.146 2178.29 -106.146C2178.2 -106.04 2178.2 -106.04 2178.2 -106.04L2178.29 -106.146Z" fill="white"/>
<path d="M851.452 -420.647C882.101 -386.627 912.656 -352.607 943.4 -318.692C944.539 -317.429 946.721 -316.797 948.334 -316.797C977.275 -316.691 1006.22 -316.691 1035.16 -316.691C1036.11 -316.691 1037.15 -317.007 1039.14 -317.323C1037.06 -319.324 1035.63 -320.483 1034.4 -321.852C1005.65 -353.766 976.991 -385.679 948.144 -417.488C945.393 -420.437 944.444 -423.386 944.444 -427.599C944.633 -458.459 944.539 -489.32 944.539 -520.285C944.539 -522.181 944.539 -523.972 944.539 -525.762C913.225 -491.005 882.196 -456.563 850.788 -421.701C850.977 -421.49 851.167 -420.963 851.452 -420.647Z" fill="white"/>
<path d="M2178.2 526.017C2178.2 560.88 2178.2 595.006 2178.2 629.131C2209.51 594.374 2240.63 559.827 2271.38 525.701C2240.44 491.365 2209.23 456.713 2178.39 422.483C2147.55 456.713 2116.42 491.26 2085.11 526.017C2115.95 526.017 2146.98 526.017 2178.2 526.017Z" fill="white"/>
<path d="M1233.86 -111.517C1262.8 -143.642 1291.74 -175.766 1320.68 -207.995C1322.86 -210.418 1325.05 -211.366 1328.08 -211.366C1356.26 -211.26 1384.35 -211.261 1412.53 -211.261C1414.24 -211.261 1415.85 -211.261 1417.37 -211.261C1386.06 -246.018 1355.03 -280.459 1323.72 -315.217C1323.53 -315.006 1322.96 -314.585 1322.39 -313.953C1292.12 -280.354 1261.75 -246.755 1231.58 -212.946C1230.25 -211.471 1229.49 -208.733 1229.49 -206.521C1229.3 -183.665 1229.4 -160.915 1229.4 -138.059C1229.4 -127.948 1229.4 -117.837 1229.4 -107.62C1229.78 -107.304 1230.25 -107.094 1230.63 -106.778C1231.67 -108.568 1232.62 -110.253 1233.86 -111.517Z" fill="white"/>
<path d="M1044.27 731.718C1043.13 732.982 1041.99 734.351 1040.38 736.352C1041.8 736.457 1042.56 736.563 1043.32 736.563C1072.54 736.563 1101.77 736.668 1131.09 736.457C1132.99 736.457 1135.27 735.088 1136.59 733.508C1166.39 700.647 1196.09 667.574 1225.89 634.608C1226.83 633.554 1227.69 632.396 1227.69 632.291C1196.28 597.428 1165.16 562.881 1134.41 528.756C1134.41 529.704 1134.41 531.6 1134.41 533.601C1134.41 564.882 1134.51 596.059 1134.32 627.34C1134.32 629.868 1133.08 633.133 1131.47 634.924C1102.43 667.259 1073.4 699.488 1044.27 731.718Z" fill="white"/>
<path d="M759.219 -628.244C788.255 -596.014 817.387 -563.785 846.423 -531.45C847.562 -530.186 848.7 -528.711 849.744 -527.342C880.868 -527.342 911.991 -527.342 943.115 -527.342C942.261 -529.765 941.028 -530.923 939.889 -532.082C911.043 -564.101 882.196 -596.12 853.35 -628.033C850.788 -630.772 849.649 -633.51 849.649 -637.618C849.839 -668.689 849.744 -699.76 849.744 -730.831C849.744 -732.621 849.744 -734.517 849.744 -735.992C818.43 -701.234 787.307 -666.688 755.708 -631.614C756.657 -630.666 758.081 -629.613 759.219 -628.244Z" fill="white"/>
<path d="M1134.41 315.261C1135.55 313.892 1136.59 312.417 1137.73 311.154C1167.34 278.292 1196.94 245.43 1226.46 212.358C1227.97 210.673 1229.11 207.619 1229.21 205.196C1229.4 173.599 1229.3 142.001 1229.3 110.403C1229.3 108.929 1229.11 107.56 1229.11 106.928C1166.58 176.337 1104.05 245.747 1041.42 315.261C1072.26 315.261 1103.29 315.261 1134.41 315.261Z" fill="white"/>
<path d="M1134.41 315.261C1134.32 315.261 1134.32 315.367 1134.32 315.367L1134.41 315.261Z" fill="white"/>
<path d="M91.6717 -424.439C122.416 -458.565 153.729 -493.322 184.189 -527.131C153.54 -561.152 122.416 -595.698 91.4817 -630.034C91.4817 -596.436 91.4817 -562.1 91.4817 -527.342C60.1682 -527.342 29.3292 -527.342 -0.940564 -527.342C30.0883 -492.795 61.307 -458.249 91.6717 -424.439Z" fill="white"/>
<path d="M93.7591 -737.888C92.5256 -737.888 91.1023 -736.834 90.2483 -735.886C59.6938 -702.077 29.1394 -668.162 -1.3201 -634.247C-2.36388 -633.089 -3.21789 -630.982 -3.21789 -629.297C-3.31278 -595.909 -3.31287 -562.626 -3.31287 -530.081C59.1244 -599.385 121.656 -668.794 183.999 -737.993C154.393 -737.993 124.124 -737.993 93.7591 -737.888Z" fill="white"/>
<path d="M1988.51 -421.911C1988.42 -422.017 1988.51 -422.017 1988.51 -421.911C1988.42 -422.017 1988.42 -422.017 1988.42 -422.017L1988.51 -421.911Z" fill="white"/>
<path d="M1894.57 -525.973C1895.9 -524.709 1897.32 -523.55 1898.56 -522.181C1927.4 -490.162 1956.25 -458.143 1985 -426.23C1986.24 -424.86 1987.28 -423.491 1988.42 -422.017C1989.65 -420.753 1990.98 -419.594 1992.21 -418.225C2021.16 -386.101 2050.1 -353.976 2079.04 -321.852C2080.18 -320.588 2081.41 -319.324 2083.31 -317.429C2083.31 -320.062 2083.31 -321.536 2083.31 -323.116C2083.31 -354.292 2083.21 -385.574 2083.4 -416.75C2083.4 -420.226 2082.45 -422.543 2080.27 -424.966C2050.67 -457.617 2021.25 -490.373 1991.74 -523.129C1990.6 -524.393 1989.46 -525.867 1988.42 -527.237C1957.29 -527.237 1926.17 -527.237 1895.05 -527.237C1894.86 -526.921 1894.76 -526.394 1894.57 -525.973Z" fill="white"/>
<path d="M1988.42 -527.342C1988.42 -527.342 1988.42 -527.447 1988.32 -527.447C1988.32 -527.447 1988.32 -527.342 1988.42 -527.342Z" fill="white"/>
<path d="M1988.32 420.587L1988.23 420.481C1988.32 420.481 1988.32 420.587 1988.32 420.587Z" fill="white"/>
<path d="M1988.32 631.132C1988.23 631.132 1988.23 631.027 1988.32 631.132C1988.42 631.132 1988.42 631.132 1988.32 631.132C1988.32 631.027 1988.32 631.027 1988.32 631.132Z" fill="white"/>
<path d="M1894.57 421.956C1895.9 423.22 1897.32 424.378 1898.56 425.748C1927.59 457.977 1956.73 490.207 1985.67 522.542C1987.09 524.121 1988.32 526.965 1988.32 529.177C1988.51 563.197 1988.42 597.112 1988.42 631.132C2019.54 631.132 2050.67 631.132 2083.4 631.132C2051.61 595.848 2020.87 561.723 1989.37 526.755C2020.68 526.755 2051.33 526.755 2081.88 526.755C2080.94 524.332 2079.51 523.174 2078.28 521.804C2049.34 489.68 2020.4 457.556 1991.45 425.432C1990.22 424.062 1989.37 422.272 1988.32 420.587C1957.2 420.587 1926.08 420.587 1894.95 420.587C1894.86 421.008 1894.76 421.535 1894.57 421.956Z" fill="white"/>
<path d="M850.693 945.634C881.152 911.824 912.181 877.488 943.021 843.047C944.064 841.888 944.539 839.676 944.539 837.991C944.634 826.089 944.634 814.082 944.634 802.181C944.634 781.01 944.634 759.734 944.634 738.564C944.254 738.353 943.875 738.037 943.495 737.827C942.356 739.301 941.312 740.776 940.174 742.145C911.232 774.269 882.291 806.394 853.35 838.623C851.167 841.046 849.08 842.099 845.948 842.099C817.671 841.994 789.394 841.994 761.022 841.994C759.409 841.994 757.891 841.994 757.227 841.994C788.35 876.435 819.474 910.982 850.693 945.634Z" fill="white"/>
<path d="M1039.62 -4.40143C1039.62 -2.29492 1040.95 0.232971 1042.27 1.70752C1071.88 34.7797 1101.68 67.7465 1131.38 100.819C1132.32 101.872 1133.37 102.82 1134.41 103.768C1134.13 103.241 1133.94 102.82 1133.65 102.293C1164.68 67.7465 1195.81 33.3051 1226.55 -0.820312C1198.56 -0.820312 1169.62 -0.925659 1140.77 -0.715027C1135.74 -0.715027 1132.32 -2.40021 1128.91 -6.29724C1099.49 -39.1588 1069.98 -71.915 1039.71 -105.514C1039.62 -103.618 1039.52 -102.775 1039.52 -101.933C1039.52 -69.3871 1039.43 -36.8417 1039.62 -4.40143Z" fill="white"/>
<path d="M1893.43 315.051C1893.43 280.399 1893.43 246.063 1893.43 212.042C1862.22 246.694 1831.09 281.241 1800.73 314.945C1831.76 349.387 1863.07 384.144 1893.34 417.743C1923.89 383.828 1955.02 349.281 1985.86 315.051C1955.68 315.051 1924.75 315.051 1893.43 315.051Z" fill="white"/>
<path d="M376.056 418.059C406.705 384.039 437.829 349.492 468.763 315.156C438.493 315.156 407.559 315.156 376.056 315.156C376.056 280.398 376.056 245.957 376.056 211.726C344.742 246.484 313.713 280.925 283.159 314.84C314.377 349.597 345.691 384.249 376.056 418.059Z" fill="white"/>
<path d="M1324.1 315.367C1324.19 315.261 1324.19 315.367 1324.1 315.367C1324.19 315.261 1324.19 315.261 1324.19 315.261L1324.1 315.367Z" fill="white"/>
<path d="M1320.87 420.481C1322.77 420.481 1324.95 419.007 1326.37 417.532C1356.36 384.355 1386.34 351.177 1416.23 317.789C1417.75 316.104 1418.89 313.049 1418.99 310.627C1419.18 279.029 1419.08 247.432 1419.08 215.939C1419.08 214.465 1418.89 213.096 1418.7 210.147C1416.71 212.674 1415.76 214.254 1414.53 215.623C1385.68 247.642 1356.83 279.661 1327.99 311.68C1326.75 313.049 1325.52 314.208 1324.19 315.472C1323.05 316.841 1322.01 318.316 1320.78 319.685C1291.83 351.809 1262.89 383.933 1233.95 416.058C1232.81 417.322 1231.67 418.691 1230.16 420.481C1231.48 420.587 1232.05 420.692 1232.62 420.692C1262.13 420.587 1291.55 420.692 1320.87 420.481Z" fill="white"/>
<path d="M1987.85 106.401C1957.1 140.526 1925.89 175.178 1895.14 209.304C1926.36 243.956 1957.39 278.397 1988.42 312.839C1988.42 279.135 1988.42 244.799 1988.42 209.831C2019.83 209.831 2050.76 209.831 2080.94 209.831C2050 175.389 2018.88 140.842 1987.85 106.401Z" fill="white"/>
<path d="M1611.71 -737.888C1610.09 -737.888 1608.2 -736.624 1606.96 -735.254C1576.69 -701.866 1546.52 -668.373 1516.44 -634.774C1515.11 -633.299 1514.07 -630.666 1514.07 -628.454C1513.88 -596.33 1513.97 -564.206 1513.97 -532.082C1513.97 -531.028 1514.26 -529.975 1514.35 -528.711C1577.17 -598.437 1639.6 -667.741 1702.42 -737.466C1701.66 -737.677 1701.19 -737.888 1700.81 -737.888C1671.11 -737.993 1641.41 -737.993 1611.71 -737.888Z" fill="white"/>
<path d="M1608.48 -424.123C1639.51 -458.565 1670.92 -493.427 1701.19 -527.131C1670.54 -561.151 1639.51 -595.593 1608.77 -629.718C1608.77 -596.541 1608.77 -562.31 1608.77 -527.131C1577.26 -527.131 1546.33 -527.131 1515.68 -527.131C1546.99 -492.374 1578.02 -457.933 1608.48 -424.123Z" fill="white"/>
<path d="M471.04 631.132L470.945 631.027C471.04 631.132 471.04 631.132 471.04 631.132C471.135 631.237 471.135 631.237 471.04 631.132C471.135 631.132 471.135 631.132 471.04 631.132C471.04 631.027 471.04 631.027 471.04 631.132Z" fill="white"/>
<path d="M377.289 421.956C378.617 423.22 380.041 424.378 381.274 425.748C410.31 457.977 439.441 490.207 468.383 522.542C469.806 524.121 471.04 526.965 471.04 529.177C471.23 563.197 471.135 597.112 471.135 631.132C502.258 631.132 533.382 631.132 566.119 631.132C534.331 595.848 503.587 564.723 472.083 529.755C503.397 529.755 534.046 529.755 564.601 529.755C563.652 527.332 562.229 523.174 560.995 521.804C532.054 489.68 503.112 457.556 474.171 425.432C472.937 424.062 472.084 422.272 471.04 420.587C439.916 420.587 408.792 420.587 377.668 420.587C377.574 421.008 377.479 421.535 377.289 421.956Z" fill="white"/>
<path d="M470.945 420.481L471.04 420.587C471.04 420.587 471.04 420.587 471.135 420.587L470.945 420.481Z" fill="white"/>
<path d="M471.419 312.312C471.419 278.924 471.419 244.588 471.419 209.83C502.733 209.83 533.572 209.83 564.221 209.83C533.003 175.178 501.879 140.632 471.514 106.928C440.485 141.369 409.172 176.126 378.902 209.725C409.457 243.64 440.58 278.081 471.419 312.312Z" fill="white"/>
<path d="M751.059 -311.952C752.198 -313.216 753.526 -314.374 754.76 -315.638C753.241 -316.059 751.628 -316.691 750.11 -316.691C722.213 -316.797 694.22 -316.691 666.322 -316.691C664.614 -316.691 663.001 -316.691 660.914 -316.691C660.914 -319.114 660.914 -321.01 660.914 -322.905C660.914 -353.766 660.914 -384.521 660.914 -415.381C660.914 -417.382 660.629 -419.489 660.439 -421.49C659.301 -420.016 658.257 -418.541 657.023 -417.172C628.272 -385.258 599.52 -353.345 570.864 -321.431C569.725 -320.167 568.586 -318.692 566.688 -316.481C598.381 -316.481 629.031 -316.481 660.06 -316.481C660.06 -281.407 660.06 -246.861 660.06 -212.419C661.578 -213.472 663.191 -214.315 664.425 -215.684C693.271 -247.808 722.213 -279.827 751.059 -311.952Z" fill="white"/>
<path d="M754.854 -315.638C754.854 -315.533 754.854 -315.533 754.854 -315.533C754.949 -315.533 754.949 -315.638 754.854 -315.638C754.854 -315.638 754.76 -315.638 754.76 -315.533C754.76 -315.533 754.854 -315.533 754.854 -315.638Z" fill="white"/>
<path d="M660.06 -212.314C660.06 -212.419 660.06 -212.524 660.06 -212.524C660.06 -212.524 659.965 -212.524 659.965 -212.419L660.06 -212.314C659.965 -212.419 659.965 -212.524 659.965 -212.524C659.965 -212.419 659.965 -212.314 660.06 -212.314Z" fill="white"/>
<path d="M751.249 99.976C752.482 101.345 753.811 102.504 755.993 104.61C755.993 69.1157 755.993 35.0956 755.993 0.23291C787.402 35.0956 818.146 69.221 849.459 104.084C849.459 68.5891 849.459 34.1477 849.459 -0.399048C848.226 -0.504395 847.277 -0.504333 846.328 -0.504333C785.789 -0.504333 725.154 -0.504333 664.615 -0.504333C663.191 -0.504333 661.863 -0.188477 660.439 -0.0831299C661.958 1.39142 663.571 2.86603 664.994 4.44592C693.746 36.1489 722.497 68.0624 751.249 99.976Z" fill="white"/>
<path d="M751.249 -321.326C752.482 -319.956 753.811 -318.798 755.993 -316.691C755.993 -352.186 755.993 -386.206 755.993 -421.069C787.401 -386.206 818.146 -352.081 849.459 -317.323C849.459 -352.818 849.459 -387.259 849.459 -422.017C848.226 -422.017 847.277 -422.017 846.328 -422.017C785.788 -422.017 725.154 -422.017 664.615 -422.017C663.191 -422.017 661.863 -421.701 660.439 -421.595C661.958 -420.121 663.571 -418.646 664.994 -417.066C693.746 -385.153 722.497 -353.239 751.249 -321.326Z" fill="white"/>
<path d="M663.191 943.949C692.797 911.298 722.307 878.542 751.723 845.785C752.672 844.732 753.526 843.573 754.949 841.888C752.292 841.888 750.679 841.888 748.971 841.888C721.928 841.888 694.884 841.994 667.936 841.783C663.381 841.783 660.155 842.836 656.644 846.839C628.272 878.857 599.52 910.455 570.959 942.263C569.725 943.633 568.207 944.58 565.929 946.476C568.017 947.108 568.302 947.214 568.586 947.214C598.287 947.214 627.987 947.319 657.687 947.108C659.585 947.108 661.863 945.528 663.191 943.949Z" fill="white"/>
<path d="M1039.9 -108.673C1070.74 -142.904 1101.87 -177.451 1132.8 -211.787C1102.15 -245.807 1071.12 -280.249 1039.9 -314.901C1039.9 -245.807 1039.9 -176.714 1039.9 -108.673Z" fill="white"/>
<path d="M1040.09 107.033C1009.25 141.264 978.129 175.81 947.67 209.62C1008.59 209.62 1070.74 209.62 1132.51 209.62C1101.49 175.073 1070.36 140.632 1040.09 107.033Z" fill="white"/>
<path d="M2087.86 -637.196C2086.72 -635.933 2085.68 -634.669 2083.97 -632.667C2115.29 -632.667 2145.56 -632.667 2175.73 -632.773C2177.34 -632.773 2179.15 -634.247 2180.38 -635.617C2210.08 -668.478 2239.69 -701.34 2269.29 -734.201C2270.24 -735.254 2271 -736.413 2272.33 -738.098C2240.45 -738.098 2209.42 -738.098 2178.48 -738.098C2177.25 -736.624 2176.02 -735.044 2174.78 -733.569C2145.75 -701.445 2116.8 -669.321 2087.86 -637.196Z" fill="white"/>
<path d="M852.59 630.921C913.604 630.921 975.757 630.921 1037.53 630.921C1006.5 596.48 975.378 561.933 945.013 528.229C914.174 562.67 883.05 597.112 852.59 630.921Z" fill="white"/>
<path d="M2088.05 205.196C2086.91 206.46 2085.77 207.829 2083.97 209.936C2086.44 209.936 2087.96 209.936 2089.48 209.936C2117.47 209.936 2145.46 209.936 2173.45 210.041C2176.49 210.041 2178.67 209.093 2180.85 206.671C2210.08 174.125 2239.4 141.58 2268.63 109.034C2269.67 107.875 2270.71 106.612 2272.42 104.61C2240.35 104.61 2209.32 104.61 2178.2 104.61C2177.06 105.98 2176.01 107.454 2174.88 108.718C2145.93 140.842 2116.99 173.072 2088.05 205.196Z" fill="white"/>
<path d="M2176.2 844.732C2146.41 877.699 2116.71 910.666 2086.91 943.738C2086.06 944.686 2085.4 945.634 2084.16 947.214C2086.53 947.214 2088.15 947.214 2089.67 947.214C2117.47 947.214 2145.37 947.108 2173.17 947.319C2176.39 947.319 2178.67 946.371 2181.04 943.843C2210.18 911.403 2239.31 878.963 2268.53 846.628C2269.67 845.364 2271 844.521 2272.23 843.468C2271.95 843.047 2271.66 842.626 2271.38 842.204C2270.9 842.099 2270.52 841.994 2270.05 841.994C2240.45 841.994 2210.93 841.888 2181.33 842.099C2179.62 841.994 2177.53 843.257 2176.2 844.732Z" fill="white"/>
<path d="M755.803 421.008C787.022 455.66 817.766 489.891 848.51 523.911C849.744 525.28 852.116 525.807 853.919 525.807C882.196 525.912 910.568 525.912 938.845 525.912C940.174 525.912 941.597 525.912 943.969 525.912C912.371 490.839 881.627 456.608 850.883 422.588C849.744 421.324 847.562 420.692 845.948 420.692C817.197 420.586 788.35 420.587 759.599 420.587C758.46 420.587 757.416 420.903 755.803 421.008Z" fill="white"/>
<path d="M845.569 310.206C846.707 311.469 847.941 312.628 849.459 314.208C849.459 244.377 849.459 175.389 849.459 105.769C848.415 106.717 847.846 107.244 847.372 107.77C817.387 140.948 787.496 174.231 757.606 207.513C756.752 208.461 756.373 209.725 755.708 210.884C756.942 212.148 758.271 213.306 759.409 214.57C788.161 246.379 816.912 278.292 845.569 310.206Z" fill="white"/>
<path d="M755.708 210.778L755.614 210.673C755.614 210.778 755.614 210.884 755.614 210.884C755.614 210.884 755.708 210.884 755.708 210.778C755.708 210.884 755.708 210.884 755.708 210.778Z" fill="white"/>
<path d="M2178.29 315.051L2178.39 314.945C2178.39 314.945 2178.39 314.945 2178.29 315.051Z" fill="white"/>
<path d="M2173.83 215.307C2144.89 247.432 2115.95 279.556 2087.01 311.68C2085.87 312.944 2084.54 314.103 2083.31 315.367C2083.31 349.913 2083.31 384.46 2083.31 419.007C2083.69 419.217 2084.16 419.428 2084.54 419.533C2085.68 418.059 2086.63 416.479 2087.86 415.11C2116.61 383.091 2145.46 351.177 2174.31 319.158C2175.64 317.684 2176.96 316.42 2178.29 315.051C2178.29 280.609 2178.29 246.168 2178.29 210.568C2176.3 212.674 2175.07 213.938 2173.83 215.307Z" fill="white"/>
<path d="M754.949 526.86L755.044 526.965C755.044 526.86 755.044 526.755 755.044 526.649C755.044 526.755 754.949 526.86 754.949 526.86Z" fill="white"/>
<path d="M759.504 635.977C788.256 667.785 816.912 699.699 845.664 731.507C846.802 732.771 847.941 733.93 849.744 735.826C849.744 701.068 849.744 667.575 849.649 634.081C849.649 632.185 848.131 629.974 846.802 628.499C823.365 602.378 799.927 576.363 776.489 550.347C769.373 542.448 762.161 534.654 755.044 526.86C754.949 560.775 754.949 594.795 754.949 628.71C754.949 629.868 755.519 630.922 755.898 632.08L755.803 631.975C755.803 632.08 755.803 632.08 755.803 632.185L755.898 632.08C757.037 633.449 758.365 634.608 759.504 635.977Z" fill="white"/>
<path d="M561.754 99.3441C562.893 100.608 564.126 101.872 566.024 103.873C566.024 101.135 566.024 99.4493 566.024 97.7642C566.024 66.6932 566.024 35.6223 566.119 4.55127C566.119 1.18085 565.265 -1.24164 563.083 -3.66412C533.762 -36.1044 504.441 -68.65 475.12 -101.09C474.076 -102.249 472.938 -103.407 471.135 -105.303C471.135 -69.7032 471.135 -35.2618 471.135 -0.715027C472.368 0.548889 473.697 1.7074 474.835 2.97131C503.872 35.0956 532.813 67.2198 561.754 99.3441Z" fill="white"/>
<path d="M2083.4 4.55127C2083.4 1.18085 2082.55 -1.24164 2080.37 -3.66412C2051.05 -36.1044 2021.72 -68.6499 1992.4 -101.09C1991.36 -102.249 1990.22 -103.407 1988.42 -105.303C1988.42 -69.7031 1988.42 -35.2618 1988.42 -0.715027C1989.65 0.548889 1990.98 1.70746 1992.12 2.97137C2021.06 35.0956 2050 67.2198 2079.04 99.3441C2080.18 100.608 2081.41 101.872 2083.31 103.873C2083.31 101.135 2083.31 99.4495 2083.31 97.7643C2083.31 66.6933 2083.31 35.6223 2083.4 4.55127Z" fill="white"/>
<path d="M469.617 -105.619C407.274 -105.619 345.027 -105.619 283.823 -105.619C314.662 -71.3884 345.786 -36.8417 376.72 -2.50555C407.369 -36.5257 438.398 -70.967 469.617 -105.619Z" fill="white"/>
<path d="M371.88 -427.388C373.019 -426.124 374.348 -424.86 376.056 -422.965C376.15 -424.544 376.245 -425.387 376.245 -426.124C376.245 -458.565 376.34 -491.11 376.15 -523.55C376.15 -525.762 374.727 -528.395 373.209 -530.081C343.983 -562.731 314.662 -595.172 285.436 -627.717C284.392 -628.876 283.254 -630.034 281.451 -631.93C281.451 -629.297 281.451 -627.612 281.451 -625.927C281.451 -603.808 281.451 -581.69 281.451 -559.572C281.451 -548.723 281.64 -537.875 281.735 -527.026C282.969 -525.868 284.297 -524.709 285.436 -523.445C314.187 -491.426 343.034 -459.407 371.88 -427.388Z" fill="white"/>
<path d="M282.969 737.195C313.523 771.109 344.647 805.551 375.771 840.203C375.771 770.899 375.771 701.911 375.771 634.186C345.027 668.312 313.903 702.859 282.969 737.195Z" fill="white"/>
<path d="M277.465 -531.239C248.524 -563.363 219.583 -595.488 190.546 -627.612C189.408 -628.876 188.269 -630.034 186.466 -631.93C186.466 -597.173 186.466 -563.574 186.561 -530.081C186.561 -528.29 187.889 -526.289 189.123 -524.92C218.729 -491.953 248.334 -459.091 277.94 -426.23C278.888 -425.176 279.932 -424.334 281.451 -422.859C281.451 -458.249 281.451 -492.69 281.451 -527.026C280.122 -528.501 278.699 -529.765 277.465 -531.239Z" fill="white"/>
<path d="M1800.44 -105.724C1831.57 -71.1777 1862.59 -36.6309 1893.43 -2.50549C1924.27 -36.7363 1955.4 -71.283 1986.43 -105.724C1924.46 -105.724 1862.31 -105.724 1800.44 -105.724Z" fill="white"/>
<path d="M275.663 -316.691C276.991 -316.691 278.414 -316.691 280.786 -316.691C249.188 -351.87 218.444 -385.995 187.605 -420.016C186.466 -421.279 184.284 -421.911 182.671 -421.911C153.919 -422.017 125.073 -422.017 96.3212 -422.017C95.1825 -422.017 94.1387 -421.806 92.5256 -421.595C123.744 -386.943 154.488 -352.713 185.233 -318.693C186.466 -317.323 188.838 -316.797 190.641 -316.797C219.013 -316.691 247.385 -316.691 275.663 -316.691Z" fill="white"/>
<path d="M1889.16 -427.388C1890.3 -426.124 1891.54 -424.86 1893.34 -422.965C1893.43 -424.544 1893.53 -425.387 1893.53 -426.124C1893.53 -458.565 1893.62 -491.11 1893.43 -523.55C1893.43 -525.762 1892.01 -528.395 1890.49 -530.081C1861.27 -562.731 1831.95 -595.172 1802.72 -627.717C1801.68 -628.876 1800.54 -630.034 1798.73 -631.93C1798.73 -629.297 1798.73 -627.612 1798.73 -625.927C1798.73 -603.492 1798.73 -580.953 1798.73 -558.518C1798.73 -547.986 1798.92 -537.453 1799.02 -527.026C1800.25 -525.868 1801.58 -524.709 1802.72 -523.445C1831.47 -491.426 1860.32 -459.407 1889.16 -427.388Z" fill="white"/>
<path d="M279.173 -105.409C248.334 -139.639 217.211 -174.186 186.561 -208.206C186.561 -140.482 186.561 -71.5991 186.561 -2.61096C217.875 -37.3683 248.903 -71.8098 279.173 -105.409Z" fill="white"/>
<path d="M276.611 104.61C277.655 104.61 278.699 104.61 280.786 104.61C249.188 69.4316 218.444 35.3063 187.605 1.28613C186.466 0.0222168 184.284 -0.609802 182.67 -0.609802C153.919 -0.715149 125.072 -0.715088 96.3209 -0.715088C95.1823 -0.715088 94.1385 -0.504395 92.5254 -0.293762C123.744 34.3583 154.488 68.589 185.232 102.609C186.371 103.873 188.554 104.505 190.167 104.505C219.013 104.61 247.86 104.61 276.611 104.61Z" fill="white"/>
<path d="M91.8614 629.026C122.89 594.584 154.014 560.037 184.758 525.912C154.014 491.786 122.89 457.24 91.8614 422.798C91.8614 491.365 91.8614 560.354 91.8614 629.026Z" fill="white"/>
<path d="M1800.25 737.09C1830.9 771.11 1861.93 805.551 1893.15 840.203C1893.15 771.005 1893.15 701.911 1893.15 633.976C1862.31 668.207 1831.19 702.754 1800.25 737.09Z" fill="white"/>
<path d="M1707.83 -627.612C1706.69 -628.876 1705.55 -630.034 1703.75 -631.93C1703.75 -597.173 1703.75 -563.574 1703.84 -530.081C1703.84 -528.29 1705.17 -526.289 1706.41 -524.92C1736.01 -491.953 1765.62 -459.091 1795.22 -426.23C1796.17 -425.176 1797.22 -424.334 1798.73 -422.859C1798.73 -458.249 1798.73 -492.69 1798.73 -527.026C1797.41 -528.395 1795.98 -529.765 1794.65 -531.134C1765.71 -563.363 1736.77 -595.488 1707.83 -627.612Z" fill="white"/>
<path d="M1704.89 -420.121C1703.94 -421.174 1702.14 -421.911 1700.81 -421.911C1670.73 -422.017 1640.74 -422.017 1609.62 -422.017C1610.95 -420.437 1611.52 -419.699 1612.09 -418.962C1642.07 -385.679 1671.96 -352.397 1702.04 -319.219C1703.46 -317.639 1706.12 -316.691 1708.21 -316.691C1736.49 -316.481 1764.86 -316.586 1793.14 -316.586C1794.46 -316.586 1795.79 -316.586 1797.41 -316.586C1797.12 -317.534 1797.03 -317.85 1796.84 -318.06C1766.19 -352.186 1735.54 -386.206 1704.89 -420.121Z" fill="white"/>
<path d="M1704.03 -2.92682C1735.06 -37.3682 1766.19 -71.915 1796.36 -105.409C1765.52 -139.639 1734.4 -174.186 1704.03 -207.89C1704.03 -140.376 1704.03 -71.3883 1704.03 -2.92682Z" fill="white"/>
<path d="M1796.74 103.136C1766.09 69.1158 1735.54 35.0956 1704.79 1.18085C1703.94 0.23291 1702.42 -0.609741 1701.19 -0.609741C1671.01 -0.715088 1640.84 -0.715027 1609.52 -0.715027C1610.85 0.864868 1611.42 1.60217 1612.09 2.33948C1642.07 35.6223 1671.96 68.9052 1702.04 102.083C1703.47 103.663 1706.12 104.505 1708.21 104.61C1736.49 104.821 1764.86 104.716 1793.14 104.716C1794.46 104.716 1795.79 104.716 1797.41 104.716C1797.03 103.663 1796.93 103.347 1796.74 103.136Z" fill="white"/>
<path d="M1609.05 628.71C1640.08 594.268 1671.2 559.722 1701.66 525.912C1671.01 491.892 1639.89 457.345 1609.05 423.115C1609.05 491.471 1609.05 560.353 1609.05 628.71Z" fill="white"/>
<path d="M1606.11 -421.701C1545 -421.701 1482.85 -421.701 1421.74 -421.701C1452.48 -387.575 1483.7 -352.923 1513.88 -319.43C1544.53 -353.345 1575.55 -387.891 1606.11 -421.701Z" fill="white"/>
<path d="M1514.54 -2.50549C1545.19 -36.5256 1576.22 -70.967 1607.44 -105.619C1545 -105.619 1482.75 -105.619 1421.74 -105.619C1452.48 -71.3883 1483.61 -36.8416 1514.54 -2.50549Z" fill="white"/>
<path d="M1605.82 -0.399048C1545 -0.399048 1482.85 -0.399048 1421.07 -0.399048C1452.2 34.1477 1483.23 68.5891 1513.5 102.188C1544.24 67.9572 1575.36 33.3051 1605.82 -0.399048Z" fill="white"/>
<path d="M1418.7 633.871C1387.86 668.102 1356.74 702.648 1325.8 736.984C1356.45 771.004 1387.48 805.446 1418.7 840.098C1418.7 771.005 1418.7 701.911 1418.7 633.871Z" fill="white"/>
<path d="M1417.37 630.816C1386.25 596.269 1355.22 561.828 1324.76 528.019C1293.64 562.565 1262.61 597.007 1232.15 630.816C1293.16 630.816 1355.41 630.816 1417.37 630.816Z" fill="white"/>
<path d="M1323.91 -319.746C1323.91 -387.681 1323.91 -456.563 1323.91 -524.498C1293.07 -490.268 1261.94 -455.721 1231.67 -422.122C1262.32 -388.102 1293.35 -353.66 1323.91 -319.746Z" fill="white"/>
<path d="M1322.39 843.152C1323.53 841.888 1324.1 839.466 1324.1 837.675C1324.19 805.762 1324.19 773.743 1324.19 741.829C1324.19 740.565 1324 739.407 1323.81 737.616C1292.59 772.268 1261.75 806.394 1231.1 840.519C1229.97 841.783 1229.4 844.206 1229.4 845.996C1229.3 877.91 1229.3 909.929 1229.3 941.842C1229.3 943.001 1229.3 944.16 1229.3 946.477C1260.9 911.509 1291.74 877.383 1322.39 843.152Z" fill="white"/>
<path d="M1227.21 -632.667C1196.57 -666.688 1165.44 -701.234 1134.6 -735.465C1134.6 -667.214 1134.6 -598.226 1134.6 -529.87C1165.63 -564.311 1196.76 -598.858 1227.21 -632.667Z" fill="white"/>
<path d="M1227.21 -210.734C1196.38 -244.965 1165.25 -279.511 1134.51 -313.637C1134.51 -245.913 1134.51 -176.924 1134.51 -107.936C1165.82 -142.588 1196.85 -177.135 1227.21 -210.734Z" fill="white"/>
<path d="M1421.45 943.949C1450.96 911.403 1480.28 878.752 1509.7 846.101C1510.65 845.048 1511.6 843.889 1513.31 841.888C1481.99 841.888 1451.82 841.888 1421.64 841.994C1420.03 841.994 1418.23 843.468 1416.99 844.732C1387.2 877.699 1357.5 910.666 1327.7 943.738C1326.94 944.581 1326.28 945.634 1325.14 947.214C1356.07 947.214 1386.25 947.214 1416.42 947.109C1418.13 947.109 1420.12 945.423 1421.45 943.949Z" fill="white"/>
<path d="M1131.95 -632.878C1101.01 -667.214 1069.89 -701.761 1039.62 -735.36C1008.97 -701.34 977.94 -666.898 947.29 -632.878C1008.49 -632.878 1070.65 -632.878 1131.95 -632.878Z" fill="white"/>
<path d="M2270.62 -316.586C2240.35 -316.586 2209.32 -316.586 2178.29 -316.586C2178.29 -282.039 2178.29 -247.492 2178.29 -214.104C2209.04 -248.23 2239.97 -282.566 2270.62 -316.586Z" fill="white"/>
<path d="M2270.62 -105.935C2240.35 -105.935 2209.32 -105.935 2178.29 -105.935C2178.29 -71.3883 2178.29 -36.8416 2178.29 -3.45343C2209.04 -37.5789 2239.97 -71.9149 2270.62 -105.935Z" fill="white"/>
<path d="M2178.29 -106.146L2178.2 -106.04H2178.29C2178.29 -106.04 2178.29 -106.04 2178.29 -106.146Z" fill="white"/>
<path d="M2178.2 -316.691C2178.2 -316.586 2178.2 -316.586 2178.2 -316.691C2178.29 -316.691 2178.29 -316.691 2178.2 -316.691C2178.2 -316.796 2178.2 -316.796 2178.2 -316.691C2178.1 -316.691 2178.1 -316.691 2178.2 -316.691Z" fill="white"/>
<path d="M2085.77 -316.797C2116.04 -316.797 2147.07 -316.797 2178.1 -316.797C2178.1 -351.343 2178.1 -385.89 2178.1 -419.278C2147.36 -385.153 2116.42 -350.817 2085.77 -316.797Z" fill="white"/>
<path d="M2086.06 104.505C2116.04 104.505 2147.17 104.505 2178.2 104.505C2178.2 69.9584 2178.2 35.5169 2178.2 2.23413C2147.45 36.3596 2116.52 70.6956 2086.06 104.505Z" fill="white"/>
<path d="M2178.29 104.505C2178.2 104.613 2178.2 104.505 2178.29 104.505V104.505Z" fill="white"/>
<path d="M2083.69 -211.471C2114.81 -211.471 2145.65 -211.471 2175.92 -211.471C2145.18 -245.597 2114.15 -280.038 2083.69 -313.847C2083.69 -280.459 2083.69 -246.018 2083.69 -211.471Z" fill="white"/>
<path d="M2083.69 631.132C2114.81 631.132 2145.65 631.132 2175.26 631.132C2144.89 597.428 2113.96 563.092 2083.69 529.493C2083.69 562.144 2083.69 596.586 2083.69 631.132Z" fill="white"/>
<path d="M1990.6 315.261C2021.06 315.261 2052.09 315.261 2083.12 315.261C2083.12 280.715 2083.12 246.168 2083.12 212.569C2052.37 246.694 2021.44 281.031 1990.6 315.261Z" fill="white"/>
<path d="M2083.21 315.472L2083.31 315.367H2083.21C2083.21 315.367 2083.21 315.367 2083.21 315.472Z" fill="white"/>
<path d="M1990.22 736.247C2021.06 736.247 2051.99 736.247 2082.93 736.247C2082.93 701.595 2082.93 667.259 2082.93 633.344C2052.09 667.68 2021.16 701.911 1990.22 736.247Z" fill="white"/>
<path d="M1988.42 420.587V420.481H1988.32C1988.23 420.481 1988.42 420.587 1988.42 420.587Z" fill="white"/>
<path d="M1988.42 317.684C1988.42 351.599 1988.42 386.04 1988.42 420.481C2019.54 420.481 2050.67 420.481 2081.03 420.481C2050.19 386.251 2019.26 351.915 1988.42 317.684Z" fill="white"/>
<path d="M1988.32 -319.43C1988.32 -353.029 1988.32 -387.47 1988.32 -421.911C1957.2 -421.911 1926.08 -421.911 1896 -421.911C1926.74 -387.786 1957.67 -353.45 1988.32 -319.43Z" fill="white"/>
<path d="M1988.51 -421.911L1988.42 -422.017V-421.911C1988.42 -421.911 1988.42 -421.911 1988.51 -421.911Z" fill="white"/>
<path d="M1988.32 101.556C1988.32 68.2732 1988.32 33.7264 1988.32 -0.715027C1957.2 -0.715027 1926.17 -0.715027 1896.19 -0.715027C1926.93 33.4105 1957.86 67.7465 1988.32 101.556Z" fill="white"/>
<path d="M1988.32 -0.715027H1988.42C1988.42 -0.715027 1988.42 -0.820312 1988.32 -0.715027H1988.42L1988.32 -0.820251C1988.32 -0.820251 1988.32 -0.820312 1988.32 -0.715027Z" fill="white"/>
<path d="M1800.63 -737.677C1831.47 -703.446 1862.31 -669.215 1893.15 -634.985C1893.15 -668.899 1893.15 -703.235 1893.15 -737.677C1862.03 -737.677 1831.09 -737.677 1800.63 -737.677Z" fill="white"/>
<path d="M1893.24 -421.595C1861.93 -421.595 1831 -421.595 1800.73 -421.595C1831.47 -387.47 1862.41 -353.134 1893.24 -318.903C1893.24 -352.713 1893.24 -387.049 1893.24 -421.595Z" fill="white"/>
<path d="M1893.24 -0.398987C1862.03 -0.398987 1831.19 -0.398987 1800.73 -0.398987C1831.57 33.8317 1862.41 68.0625 1893.24 102.293C1893.24 68.3785 1893.24 33.9371 1893.24 -0.398987Z" fill="white"/>
<path d="M1800.92 104.926C1831.66 139.052 1862.59 173.388 1893.34 207.513C1893.34 173.809 1893.34 139.578 1893.34 104.926C1862.03 104.926 1831.09 104.926 1800.92 104.926Z" fill="white"/>
<path d="M1036.49 525.701C1006.03 491.892 975.093 457.556 944.918 424.062C944.918 456.924 944.918 491.26 944.918 525.701C976.042 525.701 1006.98 525.701 1036.49 525.701Z" fill="white"/>
<path d="M1037.06 946.898C1006.41 912.877 975.472 878.541 944.823 844.521C944.823 878.015 944.823 912.351 944.823 946.898C976.232 946.898 1007.07 946.898 1037.06 946.898Z" fill="white"/>
<path d="M944.349 -632.983C944.349 -667.636 944.349 -701.866 944.349 -735.676C913.51 -701.445 882.671 -667.214 851.832 -632.983C882.386 -632.983 913.415 -632.983 944.349 -632.983Z" fill="white"/>
<path d="M944.254 209.62C944.254 174.862 944.254 140.526 944.254 106.928C913.51 141.053 882.576 175.389 851.737 209.62C882.196 209.62 913.13 209.62 944.254 209.62Z" fill="white"/>
<path d="M1323.81 736.247C1323.81 701.49 1323.81 667.153 1323.81 633.554C1293.07 667.68 1262.13 702.016 1231.29 736.247C1261.75 736.247 1292.69 736.247 1323.81 736.247Z" fill="white"/>
<path d="M1226.55 315.367C1196.57 315.367 1165.44 315.367 1134.41 315.367C1134.41 349.913 1134.41 384.355 1134.41 417.637C1165.16 383.512 1196.09 349.176 1226.55 315.367Z" fill="white"/>
<path d="M1134.41 315.261L1134.32 315.367H1134.41V315.261Z" fill="white"/>
<path d="M1134.51 421.008C1134.51 455.555 1134.51 489.786 1134.51 523.279C1165.25 489.154 1196.19 454.817 1226.65 421.008C1196.57 421.008 1165.63 421.008 1134.51 421.008Z" fill="white"/>
<path d="M849.934 -527.237L849.839 -527.342V-527.237C849.839 -527.237 849.839 -527.237 849.934 -527.237Z" fill="white"/>
<path d="M849.744 -424.439C849.744 -458.249 849.744 -492.69 849.744 -527.131C818.62 -527.131 787.496 -527.131 757.227 -527.131C787.971 -493.006 818.905 -458.67 849.744 -424.439Z" fill="white"/>
<path d="M1324.1 315.367L1324.19 315.261H1324.1C1324.1 315.261 1324.1 315.261 1324.1 315.367Z" fill="white"/>
<path d="M1231.77 315.156C1262.04 315.156 1293.07 315.156 1324.1 315.156C1324.1 280.609 1324.1 246.063 1324.1 212.674C1293.35 246.8 1262.42 281.136 1231.77 315.156Z" fill="white"/>
<path d="M1232.34 209.62C1262.04 209.62 1292.88 209.62 1324 209.62C1324 175.073 1324 140.737 1324 107.875C1293.54 141.685 1262.61 176.021 1232.34 209.62Z" fill="white"/>
<path d="M1039.62 -629.929C1039.62 -596.33 1039.62 -561.889 1039.62 -527.447C1070.74 -527.447 1101.87 -527.447 1131.95 -527.447C1101.2 -561.573 1070.27 -595.909 1039.62 -629.929Z" fill="white"/>
<path d="M1039.62 -527.447H1039.52C1039.43 -527.447 1039.52 -527.342 1039.62 -527.447H1039.52C1039.43 -527.342 1039.52 -527.342 1039.62 -527.447C1039.52 -527.342 1039.62 -527.342 1039.62 -527.342C1039.62 -527.342 1039.62 -527.342 1039.62 -527.447Z" fill="white"/>
<path d="M1227.31 -105.724C1196.85 -105.724 1166.01 -105.724 1134.89 -105.724C1134.89 -70.967 1134.89 -36.631 1134.89 -3.13751C1165.63 -37.2629 1196.47 -71.599 1227.31 -105.724Z" fill="white"/>
<path d="M847.277 838.623C847.846 839.255 848.605 839.782 849.459 840.519C849.459 805.656 849.459 771.32 849.459 736.668C818.051 736.668 786.927 736.668 755.803 736.668C756.278 737.3 756.657 738.037 757.132 738.564C787.212 771.952 817.292 805.34 847.277 838.623Z" fill="white"/>
<path d="M755.708 736.563L755.614 736.668C755.708 736.668 755.803 736.668 755.803 736.668C755.803 736.668 755.803 736.668 755.708 736.563Z" fill="white"/>
<path d="M1231.67 -632.983C1261.94 -632.983 1292.97 -632.983 1324 -632.983C1324 -667.636 1324 -701.866 1324 -735.465C1293.26 -701.34 1262.23 -667.004 1231.67 -632.983Z" fill="white"/>
<path d="M1418.7 209.62C1418.7 174.862 1418.7 140.526 1418.7 107.033C1387.96 141.158 1357.02 175.494 1326.28 209.62C1356.64 209.62 1387.58 209.62 1418.7 209.62Z" fill="white"/>
<path d="M1418.8 104.189C1418.8 69.537 1418.8 35.3063 1418.8 1.39148C1387.96 35.6222 1357.02 69.853 1326.18 104.189C1356.83 104.189 1387.86 104.189 1418.8 104.189Z" fill="white"/>
<path d="M1418.99 -317.112C1418.99 -351.659 1418.99 -385.89 1418.99 -419.594C1388.15 -385.363 1357.21 -351.027 1326.66 -317.112C1356.83 -317.112 1387.86 -317.112 1418.99 -317.112Z" fill="white"/>
<path d="M1326.18 -633.089C1356.83 -633.089 1387.77 -633.089 1418.8 -633.089C1418.8 -667.741 1418.8 -701.972 1418.8 -735.886C1387.96 -701.55 1357.12 -667.32 1326.18 -633.089Z" fill="white"/>
<path d="M1421.17 105.032C1451.91 139.157 1482.85 173.493 1513.69 207.724C1513.69 173.915 1513.69 139.578 1513.69 105.032C1482.47 105.032 1451.53 105.032 1421.17 105.032Z" fill="white"/>
<path d="M1513.59 -737.677C1482.37 -737.677 1451.53 -737.677 1421.36 -737.677C1452.1 -703.551 1483.04 -669.215 1513.59 -635.301C1513.59 -668.899 1513.59 -703.341 1513.59 -737.677Z" fill="white"/>
<path d="M1606.87 842.31C1576.22 842.31 1545.28 842.31 1514.26 842.31C1514.26 876.962 1514.26 911.193 1514.26 945.107C1545.09 910.771 1575.93 876.541 1606.87 842.31Z" fill="white"/>
<path d="M1514.07 421.008C1514.07 455.555 1514.07 489.786 1514.07 523.174C1544.81 489.048 1575.74 454.712 1606.11 421.008C1576.12 421.008 1545.19 421.008 1514.07 421.008Z" fill="white"/>
<path d="M659.87 -211.471V-211.366C659.87 -211.261 659.965 -211.366 659.87 -211.471C659.87 -211.366 659.87 -211.366 659.87 -211.366C659.87 -211.366 659.87 -211.366 659.965 -211.366L660.06 -211.471C659.965 -211.471 659.965 -211.471 659.87 -211.471Z" fill="white"/>
<path d="M656.169 -216.106C627.513 -247.808 598.951 -279.617 570.294 -311.32C569.156 -312.584 567.922 -313.848 566.309 -315.533C566.309 -280.459 566.309 -246.018 566.309 -211.366C597.717 -211.366 628.746 -211.366 659.87 -211.366C659.87 -211.682 659.87 -211.998 659.87 -212.314C658.637 -213.683 657.308 -214.842 656.169 -216.106Z" fill="white"/>
<path d="M570.389 531.284C569.25 530.02 567.922 528.756 566.309 526.965C566.309 562.039 566.309 596.48 566.309 631.027C567.353 631.132 568.112 631.237 568.871 631.237C598.287 631.237 627.702 631.237 657.118 631.237C658.162 631.237 659.301 630.922 660.344 630.816C658.826 629.236 657.308 627.762 655.885 626.182C627.418 594.584 598.951 562.881 570.389 531.284Z" fill="white"/>
<path d="M565.929 315.472L566.024 315.367H565.929C565.929 315.367 565.929 315.366 565.929 315.472Z" fill="white"/>
<path d="M473.317 315.261C503.777 315.261 534.806 315.261 565.835 315.261C565.835 280.714 565.835 246.168 565.835 212.569C535.09 246.694 504.156 281.03 473.317 315.261Z" fill="white"/>
<path d="M565.645 736.247C565.645 701.489 565.645 667.153 565.645 633.554C534.9 667.68 503.966 702.016 473.127 736.247C503.587 736.247 534.521 736.247 565.645 736.247Z" fill="white"/>
<path d="M1132.04 420.481C1101.2 386.251 1070.27 351.914 1039.81 318.105C1039.81 351.493 1039.81 385.935 1039.81 420.481C1071.03 420.481 1101.87 420.481 1132.04 420.481Z" fill="white"/>
<path d="M1701 842.31C1671.11 842.31 1640.08 842.31 1609.05 842.31C1609.05 876.962 1609.05 911.087 1609.05 944.37C1639.7 910.35 1670.63 876.014 1701 842.31Z" fill="white"/>
<path d="M1609.05 -105.724C1609.05 -71.0724 1609.05 -36.8417 1609.05 -2.82153C1640.08 -37.2629 1670.92 -71.4937 1701.76 -105.724C1671.2 -105.724 1640.17 -105.724 1609.05 -105.724Z" fill="white"/>
<path d="M1701.66 -211.05C1671.2 -211.05 1640.17 -211.05 1609.14 -211.05C1609.14 -176.398 1609.14 -142.167 1609.14 -108.358C1639.98 -142.694 1670.92 -176.924 1701.66 -211.05Z" fill="white"/>
<path d="M471.135 317.684C471.135 351.599 471.135 386.04 471.135 420.481C502.258 420.481 533.382 420.481 563.747 420.481C532.908 386.25 501.974 351.915 471.135 317.684Z" fill="white"/>
<path d="M470.945 420.481L471.04 420.587L471.04 420.481C471.04 420.481 471.04 420.481 470.945 420.481Z" fill="white"/>
<path d="M1609.05 -316.481C1609.05 -281.934 1609.05 -247.598 1609.05 -214.42C1639.6 -248.335 1670.54 -282.671 1701 -316.48C1671.11 -316.48 1640.27 -316.481 1609.05 -316.481Z" fill="white"/>
<path d="M471.04 -421.911H471.135C471.23 -421.911 471.135 -422.017 471.04 -421.911C471.135 -421.911 471.135 -421.911 471.135 -421.911C471.23 -422.017 471.135 -422.017 471.04 -421.911Z" fill="white"/>
<path d="M471.04 -319.43C471.04 -353.029 471.04 -387.47 471.04 -421.911C439.916 -421.911 408.792 -421.911 378.712 -421.911C409.457 -387.786 440.391 -353.45 471.04 -319.43Z" fill="white"/>
<path d="M471.04 -0.925659V-0.820312H471.135C471.135 -0.714966 471.04 -0.925659 471.04 -0.925659Z" fill="white"/>
<path d="M471.04 -0.715027C439.916 -0.715027 408.887 -0.715088 378.902 -0.715088C409.646 33.4104 440.58 67.7465 471.04 101.556C471.04 68.1678 471.04 33.7264 471.04 -0.715027Z" fill="white"/>
<path d="M1796.36 947.109C1765.52 912.878 1734.59 878.542 1704.13 844.732C1704.13 878.226 1704.13 912.562 1704.13 947.109C1735.25 947.109 1766.09 947.109 1796.36 947.109Z" fill="white"/>
<path d="M1704.13 631.132C1735.25 631.132 1766.09 631.132 1796.46 631.132C1765.62 596.901 1734.68 562.565 1704.13 528.651C1704.13 562.144 1704.13 596.586 1704.13 631.132Z" fill="white"/>
<path d="M1039.81 525.701C1071.03 525.701 1101.87 525.701 1132.42 525.701C1101.49 491.365 1070.55 457.029 1039.81 422.904C1039.81 456.713 1039.81 491.155 1039.81 525.701Z" fill="white"/>
<path d="M1704.03 424.062C1704.03 456.924 1704.03 491.26 1704.03 525.701C1735.16 525.701 1766.09 525.701 1795.6 525.701C1765.14 491.892 1734.21 457.556 1704.03 424.062Z" fill="white"/>
<path d="M283.918 -737.888C314.567 -703.867 345.501 -669.531 375.866 -635.827C375.866 -669.005 375.866 -703.446 375.866 -737.888C344.647 -737.888 313.903 -737.888 283.918 -737.888Z" fill="white"/>
<path d="M1132.14 631.132C1101.3 596.901 1070.36 562.565 1039.9 528.756C1039.9 562.249 1039.9 596.691 1039.9 631.132C1071.03 631.132 1101.77 631.132 1132.14 631.132Z" fill="white"/>
<path d="M375.961 -319.956C375.961 -352.923 375.961 -387.259 375.961 -421.806C344.837 -421.806 313.903 -421.806 284.202 -421.806C314.757 -387.891 345.691 -353.555 375.961 -319.956Z" fill="white"/>
<path d="M283.633 -0.39917C314.377 33.7263 345.311 68.0625 376.055 102.188C376.055 68.5891 376.055 34.2529 376.055 -0.39917C344.742 -0.39917 313.808 -0.39917 283.633 -0.39917Z" fill="white"/>
<path d="M375.961 105.032C344.647 105.032 313.713 105.032 283.538 105.032C314.282 139.157 345.216 173.493 375.961 207.619C375.961 173.915 375.961 139.578 375.961 105.032Z" fill="white"/>
<path d="M1136.5 736.879C1167.24 771.004 1198.18 805.34 1229.02 839.571C1229.02 805.762 1229.02 771.32 1229.02 736.879C1197.8 736.879 1166.86 736.879 1136.5 736.879Z" fill="white"/>
<path d="M281.64 -108.252C312.48 -142.483 343.413 -176.819 374.253 -211.05C343.698 -211.05 312.669 -211.05 281.64 -211.05C281.64 -176.398 281.64 -142.062 281.64 -108.252Z" fill="white"/>
<path d="M281.735 842.204C281.735 876.962 281.735 911.297 281.735 944.791C312.479 910.666 343.413 876.33 374.158 842.204C343.793 842.204 312.859 842.204 281.735 842.204Z" fill="white"/>
<path d="M281.166 -632.984C281.166 -667.636 281.166 -701.866 281.166 -735.676C250.232 -701.34 219.298 -667.004 188.649 -632.984C219.108 -632.984 250.042 -632.984 281.166 -632.984Z" fill="white"/>
<path d="M944.918 -738.414C976.232 -738.414 1007.17 -738.414 1037.34 -738.414C1006.6 -772.54 975.663 -806.876 944.918 -841.001C944.918 -807.297 944.918 -772.961 944.918 -738.414Z" fill="white"/>
<path d="M281.166 209.62C281.166 175.073 281.166 140.737 281.166 107.665C250.612 141.58 219.677 175.916 189.313 209.62C219.108 209.62 250.042 209.62 281.166 209.62Z" fill="white"/>
<path d="M1796.55 -211.682C1765.71 -245.912 1734.87 -280.143 1704.03 -314.374C1704.03 -280.565 1704.03 -246.123 1704.03 -211.682C1735.25 -211.682 1766.19 -211.682 1796.55 -211.682Z" fill="white"/>
<path d="M186.846 -738.309C218.064 -738.309 248.904 -738.309 279.079 -738.309C248.429 -772.329 217.495 -806.665 186.846 -840.685C186.846 -807.086 186.846 -772.645 186.846 -738.309Z" fill="white"/>
<path d="M1229.21 -424.755C1229.21 -458.354 1229.21 -492.795 1229.21 -527.237C1198.08 -527.237 1166.96 -527.237 1136.88 -527.237C1167.62 -493.111 1198.56 -458.775 1229.21 -424.755Z" fill="white"/>
<path d="M279.363 -211.682C248.524 -245.913 217.685 -280.143 186.846 -314.374C186.846 -280.459 186.846 -246.018 186.846 -211.682C217.969 -211.682 248.903 -211.682 279.363 -211.682Z" fill="white"/>
<path d="M1229.59 525.596C1260.81 525.596 1291.64 525.596 1322.1 525.596C1291.26 491.365 1260.43 457.135 1229.59 422.904C1229.59 456.819 1229.59 491.155 1229.59 525.596Z" fill="white"/>
<path d="M1229.4 -629.929C1229.4 -596.33 1229.4 -561.889 1229.4 -527.447C1260.52 -527.447 1291.64 -527.447 1321.72 -527.447C1290.98 -561.573 1260.05 -595.909 1229.4 -629.929Z" fill="white"/>
<path d="M1229.4 -527.447L1229.3 -527.447C1229.21 -527.447 1229.3 -527.342 1229.4 -527.447L1229.3 -527.447V-527.342H1229.4C1229.4 -527.342 1229.4 -527.342 1229.4 -527.447Z" fill="white"/>
<path d="M1704.13 -738.098C1735.25 -738.098 1766.09 -738.098 1796.36 -738.098C1765.52 -772.329 1734.59 -806.665 1704.13 -840.475C1704.13 -807.086 1704.13 -772.645 1704.13 -738.098Z" fill="white"/>
<path d="M186.751 423.009C186.751 456.819 186.751 494.26 186.751 528.701C217.97 528.701 248.809 528.701 279.268 528.701C248.524 494.471 217.59 457.24 186.751 423.009Z" fill="white"/>
<path d="M279.078 630.921C248.334 596.796 217.4 562.46 186.751 528.44C186.751 562.039 186.751 596.48 186.751 630.921C217.969 630.921 248.904 630.921 279.078 630.921Z" fill="white"/>
<path d="M186.751 947.003C217.969 947.003 248.808 947.003 279.173 947.003C248.429 912.878 217.495 878.542 186.751 844.416C186.751 878.12 186.751 912.456 186.751 947.003Z" fill="white"/>
<path d="M1705.74 209.62C1736.2 209.62 1767.14 209.62 1798.16 209.62C1798.16 174.862 1798.16 140.526 1798.16 107.033C1767.42 141.158 1736.58 175.494 1705.74 209.62Z" fill="white"/>
<path d="M1706.88 -632.983C1736.49 -632.983 1767.42 -632.983 1798.45 -632.983C1798.45 -667.53 1798.45 -701.866 1798.45 -734.622C1767.99 -700.813 1737.06 -666.477 1706.88 -632.983Z" fill="white"/>
<path d="M91.7663 -316.375C91.7663 -281.723 91.7663 -247.492 91.7663 -213.578C122.7 -247.914 153.634 -282.25 184.379 -316.375C153.919 -316.375 122.89 -316.375 91.7663 -316.375Z" fill="white"/>
<path d="M184.379 -211.05C153.919 -211.05 123.08 -211.05 91.9561 -211.05C91.9561 -176.293 91.9561 -141.956 91.9561 -108.463C122.7 -142.588 153.635 -176.924 184.379 -211.05Z" fill="white"/>
<path d="M91.9559 -3.03223C122.7 -37.1577 153.634 -71.4937 184.473 -105.724C154.014 -105.724 123.08 -105.724 91.9559 -105.724C91.9559 -71.0724 91.9559 -36.7363 91.9559 -3.03223Z" fill="white"/>
<path d="M184.473 842.204C153.824 842.204 122.89 842.204 91.7663 842.204C91.7663 876.856 91.7663 911.087 91.7663 945.107C122.795 910.666 153.634 876.435 184.473 842.204Z" fill="white"/>
<path d="M1891.54 842.204C1861.08 842.204 1830.14 842.204 1799.02 842.204C1799.02 876.962 1799.02 911.298 1799.02 944.897C1829.86 910.666 1860.7 876.435 1891.54 842.204Z" fill="white"/>
<path d="M1891.54 -211.05C1861.08 -211.05 1830.14 -211.05 1799.02 -211.05C1799.02 -176.292 1799.02 -141.956 1799.02 -108.358C1829.86 -142.588 1860.7 -176.819 1891.54 -211.05Z" fill="white"/>
<path d="M-2.9335 420.903C-2.9335 455.555 -2.9335 489.891 -2.9335 523.7C27.9056 489.469 58.8398 455.133 89.6789 420.903C58.8398 420.903 28.0005 420.903 -2.9335 420.903Z" fill="white"/>
<path d="M-2.93351 841.994C-2.93351 876.856 -2.93351 911.192 -2.93351 943.843C27.4312 910.139 58.3654 875.803 88.8249 841.994C59.0296 841.994 28.1903 841.994 -2.93351 841.994Z" fill="white"/>
<path d="M1225.32 841.994C1196.09 841.994 1165.54 841.994 1134.79 841.994C1134.79 876.54 1134.79 910.455 1134.79 942.474C1164.68 909.297 1195.33 875.276 1225.32 841.994Z" fill="white"/>
</g>
</g>
<path d="M81.792 454H94.784V451.248H89.856V431.408H87.04L81.632 436.656L83.552 438.64L85.664 436.56C86.496 435.76 86.752 435.248 86.752 435.248H86.816C86.816 435.248 86.784 435.952 86.784 436.656V451.248H81.792V454ZM108.84 454.384C114.888 454.384 116.84 449.2 116.84 442.672C116.84 436.176 114.888 431.024 108.84 431.024C102.824 431.024 100.872 436.176 100.872 442.672C100.872 449.2 102.824 454.384 108.84 454.384ZM108.84 451.472C105.16 451.472 104.104 447.6 104.104 442.672C104.104 437.776 105.16 433.936 108.84 433.936C112.552 433.936 113.608 437.776 113.608 442.672C113.608 447.6 112.552 451.472 108.84 451.472ZM123.208 455.344H125.96L134.088 430.192H131.336L123.208 455.344ZM140.114 454H154.674V451.248H143.474C143.538 446.096 154.322 444.944 154.322 437.52C154.322 433.616 151.346 431.024 147.186 431.024C142.098 431.024 140.05 435.312 140.05 435.312L142.386 436.88C142.386 436.88 143.986 434 146.962 434C149.33 434 151.026 435.504 151.026 437.744C151.026 443.056 139.954 444.208 139.954 452.272C139.954 452.816 140.018 453.392 140.114 454ZM161.626 454H176.186V451.248H164.986C165.05 446.096 175.834 444.944 175.834 437.52C175.834 433.616 172.858 431.024 168.698 431.024C163.61 431.024 161.562 435.312 161.562 435.312L163.898 436.88C163.898 436.88 165.498 434 168.474 434C170.842 434 172.538 435.504 172.538 437.744C172.538 443.056 161.466 444.208 161.466 452.272C161.466 452.816 161.53 453.392 161.626 454Z" fill="white"/>
<path d="M650.882 82.0149L640.616 141.113H657.035L667.309 82.0149H650.882Z" fill="white"/>
<path d="M626.849 82.0812L610.768 122.385L609.054 116.299C605.882 108.967 596.879 98.4362 586.309 91.7998L601.013 141.084L618.386 141.055L644.243 82.0688L626.849 82.0812Z" fill="white"/>
<path d="M602.821 86.3108C601.866 82.7109 599.1 81.638 595.667 81.5095H570.211L570 82.6861C589.81 87.4003 602.918 98.7594 608.357 112.418L602.821 86.3108Z" fill="white"/>
<path d="M700.586 93.345C705.957 93.2621 709.851 94.4138 712.874 95.6069L714.357 96.2904L716.578 83.4814C713.326 82.2842 708.229 81 701.869 81C685.645 81 674.209 89.016 674.121 100.503C674.015 108.992 682.267 113.731 688.5 116.56C694.897 119.46 697.043 121.304 697.013 123.893C696.962 127.849 691.912 129.663 687.195 129.663C680.62 129.663 677.127 128.773 671.735 126.569L669.619 125.624L667.309 138.852C671.152 140.505 678.242 141.925 685.603 142C702.862 142 714.078 134.079 714.196 121.805C714.268 115.09 709.889 109.965 700.4 105.76C694.657 103.018 691.143 101.195 691.177 98.428C691.177 95.9714 694.158 93.345 700.586 93.345Z" fill="white"/>
<path d="M758.715 82.0812H746.029C742.089 82.0812 739.158 83.1335 737.427 86.9861L713.048 141.147H730.29C730.29 141.147 733.103 133.864 733.74 132.269C735.628 132.269 752.38 132.294 754.766 132.294C755.256 134.357 756.768 141.147 756.768 141.147H772L758.715 82.0812ZM738.466 120.173C739.817 116.78 745.007 103.656 745.007 103.656C744.918 103.818 746.346 100.238 747.194 98.0137L748.301 103.109C748.301 103.109 751.447 117.219 752.106 120.173H738.466Z" fill="white"/>
<g filter="url(#filter1_bi_2_61)">
<rect x="82.5393" y="200.539" width="120" height="96" rx="16" fill="white" fill-opacity="0.32"/>
<rect x="82.5393" y="200.539" width="120" height="96" rx="16" fill="url(#paint2_linear_2_61)" fill-opacity="0.03"/>
<rect x="82.5393" y="200.539" width="120" height="96" rx="16" fill="url(#paint3_linear_2_61)"/>
<rect x="84.0393" y="202.039" width="117" height="93" rx="14.5" stroke="white" stroke-opacity="0.4" stroke-width="3"/>
</g>
<path opacity="0.9" fill-rule="evenodd" clip-rule="evenodd" d="M164.437 217.527L200.026 217.552L200.092 221.369L166.303 221.369L166.35 247.268L200.567 247.747L200.633 251.564L166.357 251.084L166.403 275.982L201.026 275.956L201.092 279.773L164.566 279.773C163.563 279.759 162.705 278.911 162.703 277.831L162.693 272.568L144.855 272.318L144.885 288.364C144.886 288.879 144.685 289.362 144.339 289.71L138.222 295.443L132.877 295.429L141.18 287.502L141.152 272.266L123.314 272.017L123.307 276.942C123.309 278.016 122.462 278.831 121.466 278.817L84.6751 278.654L84.683 274.838L119.599 274.975L119.57 250.429L84.7345 249.941L84.7424 246.125L119.563 246.612L119.563 221.442L84.7939 221.228L84.8018 217.412L121.4 217.651C122.403 217.666 123.261 218.513 123.263 219.593L123.227 225.128L141.064 225.378L141.035 209.332C141.034 208.817 141.234 208.334 141.581 207.986L141.602 207.965L145.744 203.286L151.167 203.3L144.74 210.215L144.768 225.43L162.606 225.68L162.596 219.402C162.594 218.327 163.44 217.513 164.437 217.527ZM162.686 268.752L162.613 229.496L123.234 228.945L123.307 268.2L162.686 268.752Z" fill="#FBDCA6"/>
</g>
<defs>
<filter id="filter0_bdi_2_61" x="-230" y="-230" width="1310" height="998" filterUnits="userSpaceOnUse" color-interpolation-filters="sRGB">
<feFlood flood-opacity="0" result="BackgroundImageFix"/>
<feGaussianBlur in="BackgroundImage" stdDeviation="115"/>
<feComposite in2="SourceAlpha" operator="in" result="effect1_backgroundBlur_2_61"/>
<feColorMatrix in="SourceAlpha" type="matrix" values="0 0 0 0 0 0 0 0 0 0 0 0 0 0 0 0 0 0 127 0" result="hardAlpha"/>
<feOffset dx="-20" dy="94"/>
<feGaussianBlur stdDeviation="72"/>
<feColorMatrix type="matrix" values="0 0 0 0 0.5 0 0 0 0 0.489583 0 0 0 0 0.489583 0 0 0 0.16 0"/>
<feBlend mode="normal" in2="effect1_backgroundBlur_2_61" result="effect2_dropShadow_2_61"/>
<feBlend mode="normal" in="SourceGraphic" in2="effect2_dropShadow_2_61" result="shape"/>
<feColorMatrix in="SourceAlpha" type="matrix" values="0 0 0 0 0 0 0 0 0 0 0 0 0 0 0 0 0 0 127 0" result="hardAlpha"/>
<feMorphology radius="3" operator="erode" in="SourceAlpha" result="effect3_innerShadow_2_61"/>
<feOffset dy="4"/>
<feGaussianBlur stdDeviation="7"/>
<feComposite in2="hardAlpha" operator="arithmetic" k2="-1" k3="1"/>
<feColorMatrix type="matrix" values="0 0 0 0 1 0 0 0 0 1 0 0 0 0 1 0 0 0 0.25 0"/>
<feBlend mode="normal" in2="shape" result="effect3_innerShadow_2_61"/>
</filter>
<filter id="filter1_bi_2_61" x="-147.461" y="-29.4609" width="580" height="556" filterUnits="userSpaceOnUse" color-interpolation-filters="sRGB">
<feFlood flood-opacity="0" result="BackgroundImageFix"/>
<feGaussianBlur in="BackgroundImage" stdDeviation="115"/>
<feComposite in2="SourceAlpha" operator="in" result="effect1_backgroundBlur_2_61"/>
<feBlend mode="normal" in="SourceGraphic" in2="effect1_backgroundBlur_2_61" result="shape"/>
<feColorMatrix in="SourceAlpha" type="matrix" values="0 0 0 0 0 0 0 0 0 0 0 0 0 0 0 0 0 0 127 0" result="hardAlpha"/>
<feMorphology radius="3" operator="erode" in="SourceAlpha" result="effect2_innerShadow_2_61"/>
<feOffset dy="4"/>
<feGaussianBlur stdDeviation="7"/>
<feComposite in2="hardAlpha" operator="arithmetic" k2="-1" k3="1"/>
<feColorMatrix type="matrix" values="0 0 0 0 1 0 0 0 0 1 0 0 0 0 1 0 0 0 0.25 0"/>
<feBlend mode="normal" in2="shape" result="effect2_innerShadow_2_61"/>
</filter>
<linearGradient id="paint0_linear_2_61" x1="425" y1="0" x2="425" y2="530" gradientUnits="userSpaceOnUse">
<stop stop-color="white" stop-opacity="0.2"/>
<stop offset="1" stop-color="white" stop-opacity="0"/>
</linearGradient>
<linearGradient id="paint1_linear_2_61" x1="425.5" y1="1.52588e-05" x2="425.5" y2="530" gradientUnits="userSpaceOnUse">
<stop stop-color="white" stop-opacity="0.2"/>
<stop offset="1" stop-color="white" stop-opacity="0"/>
</linearGradient>
<linearGradient id="paint2_linear_2_61" x1="142.539" y1="200.539" x2="142.539" y2="296.539" gradientUnits="userSpaceOnUse">
<stop stop-color="#564C16" stop-opacity="0.2"/>
<stop offset="1" stop-color="white" stop-opacity="0"/>
</linearGradient>
<linearGradient id="paint3_linear_2_61" x1="142.539" y1="200.539" x2="142.539" y2="296.539" gradientUnits="userSpaceOnUse">
<stop stop-color="#F6B545"/>
<stop offset="1" stop-color="#F6B545"/>
</linearGradient>
<clipPath id="clip0_2_61">
<rect width="850" height="530" rx="50" fill="white"/>
</clipPath>
</defs>
</svg>
