<?xml version="1.0" standalone="no"?>
<!DOCTYPE svg PUBLIC "-//W3C//DTD SVG 20010904//EN"
 "http://www.w3.org/TR/2001/REC-SVG-20010904/DTD/svg10.dtd">
<svg version="1.0" xmlns="http://www.w3.org/2000/svg"
 width="152.000000pt" height="152.000000pt" viewBox="0 0 152.000000 152.000000"
 preserveAspectRatio="xMidYMid meet">
<metadata>
Created by potrace 1.14, written by Peter Selinger 2001-2017
</metadata>
<g transform="translate(0.000000,152.000000) scale(0.100000,-0.100000)"
fill="#000000" stroke="none">
<path d="M592 1433 c-7 -3 -19 -17 -26 -32 -21 -40 4 -81 50 -81 17 0 20 -5
17 -24 -4 -20 -13 -25 -56 -31 -67 -8 -166 -48 -242 -96 -53 -33 -62 -36 -76
-23 -22 20 -32 18 -59 -11 -22 -24 -23 -26 -5 -44 17 -19 16 -21 -16 -59 -143
-168 -192 -419 -119 -614 29 -77 109 -189 167 -230 63 -46 146 -88 208 -104
61 -17 205 -18 277 -3 59 12 218 83 218 97 0 5 -21 20 -47 35 l-48 25 -73 -24
c-188 -63 -353 -32 -483 93 -67 63 -101 122 -124 210 -64 244 93 520 350 615
48 18 81 22 170 22 96 0 118 -3 171 -26 l62 -26 58 33 57 33 -54 31 c-58 34
-166 71 -205 71 -17 0 -24 6 -24 19 0 11 -8 22 -17 24 -10 3 -2 5 18 6 45 1
89 34 89 66 0 41 -34 55 -135 54 -49 0 -96 -3 -103 -6z"/>
<path d="M1028 1138 c-7 -7 -19 -14 -25 -15 -7 -2 -27 -12 -44 -22 -26 -16
-30 -21 -16 -26 16 -7 117 43 117 57 0 14 -19 18 -32 6z"/>
<path d="M660 1094 c0 -21 4 -33 10 -29 6 3 10 19 10 36 0 16 -4 29 -10 29 -5
0 -10 -16 -10 -36z"/>
<path d="M1023 1088 c-29 -17 -51 -34 -48 -39 3 -4 29 6 58 23 62 36 60 35 50
41 -4 3 -32 -9 -60 -25z"/>
<path d="M1284 1087 c-23 -7 -85 -37 -138 -67 -83 -47 -97 -59 -101 -85 -3
-16 -11 -127 -20 -245 -15 -229 -30 -300 -70 -348 l-25 -30 48 -31 47 -31 18
23 c26 31 67 120 84 180 7 29 19 139 25 245 l12 193 81 48 c122 74 140 81 196
81 51 0 52 0 35 19 -41 45 -127 66 -192 48z"/>
<path d="M870 1049 c-26 -36 -17 -54 11 -20 17 21 26 51 15 51 -3 0 -14 -14
-26 -31z"/>
<path d="M435 1048 c4 -13 11 -27 16 -32 15 -16 20 0 10 28 -13 32 -35 36 -26
4z"/>
<path d="M1396 880 c9 -54 -9 -78 -96 -132 l-70 -43 0 -67 c0 -38 3 -68 6 -68
6 0 43 22 156 95 117 75 150 167 81 231 -15 14 -38 24 -55 24 -27 0 -28 -1
-22 -40z"/>
<path d="M250 897 c0 -15 49 -41 59 -32 6 6 -38 44 -51 45 -5 0 -8 -6 -8 -13z"/>
<path d="M786 814 c-76 -46 -145 -84 -152 -84 -8 0 -61 34 -119 75 -58 41
-110 75 -115 75 -26 0 -40 -83 -20 -119 9 -18 172 -129 222 -152 23 -10 37 -5
134 49 111 61 287 162 292 167 3 3 -93 75 -99 74 -2 0 -67 -38 -143 -85z"/>
<path d="M170 670 c0 -5 13 -10 29 -10 17 0 33 5 36 10 4 6 -8 10 -29 10 -20
0 -36 -4 -36 -10z"/>
<path d="M241 467 c-14 -6 -26 -18 -29 -25 -3 -10 3 -10 27 2 17 9 31 21 31
26 0 12 0 12 -29 -3z"/>
<path d="M375 304 c-9 -14 -14 -29 -10 -32 6 -7 44 36 45 51 0 16 -19 6 -35
-19z"/>
<path d="M790 325 c0 -4 8 -20 17 -38 13 -24 18 -28 21 -15 4 20 -14 58 -28
58 -6 0 -10 -2 -10 -5z"/>
<path d="M585 249 c-8 -34 1 -51 15 -29 12 19 13 47 1 54 -5 4 -12 -8 -16 -25z"/>
</g>
</svg>
